<svg xmlns="http://www.w3.org/2000/svg" xmlns:xlink="http://www.w3.org/1999/xlink" preserveAspectRatio="xMidYMid" width="22" height="25" viewBox="0 0 22 25">
  <defs>
    <style>

      .cls-2 {
        fill: #ffffff;
      }
    </style>
  </defs>
  <path d="M10.763,24.844 C11.255,24.844 11.640,24.459 11.640,23.968 C11.640,23.968 11.640,17.343 11.640,17.343 C11.640,17.343 19.141,17.343 19.141,17.343 C19.141,17.343 19.141,17.343 19.162,17.343 C19.162,17.343 20.658,17.343 20.658,17.343 C21.150,17.343 21.534,16.958 21.534,16.467 C21.534,15.975 21.150,15.591 20.658,15.591 C20.658,15.591 19.867,15.591 19.867,15.591 C19.867,15.591 17.281,1.764 17.281,1.764 C17.281,1.764 19.376,1.764 19.376,1.764 C19.867,1.764 20.252,1.379 20.252,0.888 C20.252,0.396 19.867,0.012 19.376,0.012 C19.376,0.012 16.234,0.012 16.234,0.012 C16.234,0.012 5.292,0.012 5.292,0.012 C5.292,0.012 2.151,0.012 2.151,0.012 C1.659,0.012 1.274,0.396 1.274,0.888 C1.274,1.379 1.659,1.764 2.151,1.764 C2.151,1.764 4.245,1.764 4.245,1.764 C4.245,1.764 1.659,15.591 1.659,15.591 C1.659,15.591 0.868,15.591 0.868,15.591 C0.377,15.591 -0.008,15.975 -0.008,16.467 C-0.008,16.958 0.377,17.343 0.868,17.343 C0.868,17.343 2.386,17.343 2.386,17.343 C2.386,17.343 9.908,17.343 9.908,17.343 C9.908,17.343 9.908,23.968 9.908,23.968 C9.887,24.438 10.272,24.844 10.763,24.844 ZM3.433,15.591 C3.433,15.591 6.019,1.785 6.019,1.785 C6.019,1.785 15.508,1.785 15.508,1.785 C15.508,1.785 18.094,15.591 18.094,15.591 C18.094,15.591 3.433,15.591 3.433,15.591 Z" id="path-1" class="cls-2" fill-rule="evenodd"/>
</svg>
