<svg xmlns="http://www.w3.org/2000/svg" xmlns:xlink="http://www.w3.org/1999/xlink" preserveAspectRatio="xMidYMid" width="18" height="18" viewBox="0 0 18 18">
  <defs>
    <style>

      .cls-2 {
        fill: #ffffff;
      }
    </style>
  </defs>
  <path d="M9.835,9.783 C9.835,9.783 9.835,16.737 9.835,16.737 C9.835,17.258 9.413,17.680 8.892,17.680 C8.372,17.680 7.949,17.258 7.949,16.737 C7.949,16.737 7.949,9.783 7.949,9.783 C7.949,9.783 0.957,9.783 0.957,9.783 C0.433,9.783 0.008,9.358 0.007,8.834 C0.007,8.309 0.433,7.884 0.957,7.884 C0.957,7.884 7.950,7.884 7.950,7.884 C7.950,7.884 7.950,0.930 7.950,0.930 C7.950,0.409 8.372,-0.013 8.892,-0.013 C9.413,-0.013 9.835,0.409 9.835,0.930 C9.835,0.930 9.835,7.884 9.835,7.884 C9.835,7.884 16.869,7.884 16.869,7.884 C17.393,7.884 17.819,8.309 17.819,8.834 C17.819,9.358 17.393,9.783 16.869,9.783 C16.869,9.783 9.835,9.783 9.835,9.783 Z" id="path-1" class="cls-2" fill-rule="evenodd"/>
</svg>
