<svg xmlns="http://www.w3.org/2000/svg" xmlns:xlink="http://www.w3.org/1999/xlink" x="0px" y="0px" width="28.8px" height="26px" viewBox="0 0 28.8 26"><path fill="#636466" d="M25,13.5c-0.5-0.1-1,0.3-1.1,0.9C23.2,19.9,18.5,24,13,24C6.9,24,2,19.1,2,13C2,6.9,6.9,2,13,2 c1.9,0,3.7,0.5,5.4,1.4c0.5,0.3,1.1,0.1,1.4-0.4c0.3-0.5,0.1-1.1-0.4-1.4C17.4,0.6,15.2,0,13,0C5.8,0,0,5.8,0,13 c0,7.2,5.8,13,13,13c6.5,0,12.1-4.9,12.9-11.4C26,14.1,25.6,13.6,25,13.5z"/>
<path fill="#9F0E12" d="M12.8,17.9c-0.3,0-0.5-0.1-0.7-0.3l-6.6-6.5c-0.4-0.4-0.4-1,0-1.4c0.4-0.4,1-0.4,1.4,0l5.9,5.9L27.1,1.9 c0.4-0.4,1-0.4,1.4,0c0.4,0.4,0.4,1,0,1.4l-15,14.3C13.3,17.8,13.1,17.9,12.8,17.9z"/></svg>