<?xml version="1.0" standalone="no"?>
<!DOCTYPE svg PUBLIC "-//W3C//DTD SVG 20010904//EN"
 "http://www.w3.org/TR/2001/REC-SVG-20010904/DTD/svg10.dtd">
<svg version="1.0" xmlns="http://www.w3.org/2000/svg"
 width="644.000000pt" height="644.000000pt" viewBox="0 0 644.000000 644.000000"
 preserveAspectRatio="xMidYMid meet">
<metadata>
Created by potrace 1.11, written by Peter Selinger 2001-2013
</metadata>
<g transform="translate(0.000000,644.000000) scale(0.100000,-0.100000)"
fill="#000000" stroke="none">
<path d="M5399 6438 c-1 -2 -3 -31 -4 -65 -2 -42 1 -64 8 -65 7 0 38 -2 70 -2
l57 -2 0 68 0 68 -65 0 c-36 0 -66 -1 -66 -2z"/>
<path d="M4991 6300 c-4 -3 -7 -34 -7 -69 l1 -63 59 -2 c32 0 62 2 68 5 10 7
13 117 3 127 -8 8 -113 9 -124 2z"/>
<path d="M4380 6129 l0 -69 68 0 68 0 -2 63 c-1 34 -2 65 -3 69 -1 3 -30 6
-66 6 l-65 -1 0 -68z"/>
<path d="M4668 6092 c-16 -2 -28 -6 -29 -10 -6 -40 -3 -115 6 -121 8 -6 90 -8
123 -2 8 1 8 119 0 127 -7 6 -66 10 -100 6z"/>
<path d="M3637 6041 c-2 -5 -1 -87 2 -118 1 -9 21 -13 65 -13 42 0 65 4 68 13
3 10 2 93 -1 118 -1 8 -131 8 -134 0z"/>
<path d="M1189 6016 c-2 -2 -31 -6 -65 -10 -162 -17 -388 -129 -513 -255 -100
-100 -182 -236 -206 -341 -2 -8 -8 -35 -14 -60 -14 -61 -7 -258 14 -350 15
-71 74 -261 94 -305 5 -11 26 -58 47 -105 37 -87 205 -426 254 -515 169 -307
271 -574 295 -775 3 -25 9 -72 14 -105 9 -63 7 -395 -2 -455 -6 -35 -17 -128
-22 -185 -2 -16 -5 -43 -8 -60 -5 -28 -10 -79 -22 -220 -3 -33 -8 -71 -10 -85
-3 -14 -7 -45 -10 -70 -3 -25 -12 -83 -20 -130 -8 -47 -17 -101 -19 -120 -9
-60 -16 -104 -21 -130 -3 -14 -8 -45 -11 -70 -2 -25 -9 -72 -14 -105 -29 -191
-42 -340 -44 -510 -2 -180 8 -259 56 -419 26 -88 116 -291 136 -306 4 -3 20
-23 37 -45 70 -95 184 -186 295 -235 30 -14 61 -31 68 -37 15 -15 32 -16 48
-5 13 8 53 156 79 292 9 47 19 94 21 105 2 11 8 43 13 70 6 28 20 93 31 145
12 52 23 106 26 120 3 14 10 43 15 65 5 22 12 48 14 59 2 10 14 56 25 101 11
45 23 91 25 101 12 56 79 305 110 409 20 66 38 130 40 141 20 89 186 579 214
633 7 11 10 21 7 21 -10 0 99 209 149 287 127 194 268 282 407 252 49 -11 101
-33 141 -61 44 -31 31 -6 -19 36 -25 21 -43 40 -40 43 7 7 76 -44 94 -69 21
-28 28 -15 28 49 l-1 58 -67 1 c-59 0 -68 -2 -68 -17 0 -15 -10 -12 -59 19
-61 37 -70 53 -27 45 23 -5 24 -3 24 66 l0 70 -66 -2 -67 -2 -3 -56 c-3 -51
-5 -56 -22 -52 -21 6 -22 6 -24 68 l-1 40 -67 2 -68 1 0 -54 c0 -41 -4 -54
-15 -54 -8 0 -18 -1 -22 -2 -5 -2 -8 17 -9 42 -1 25 -2 50 -3 56 -1 13 -123
17 -131 4 -3 -4 -3 -35 -2 -69 l4 -61 41 0 42 0 -50 -34 c-28 -18 -59 -44 -70
-56 l-20 -22 -5 33 c-5 34 -5 34 -60 35 -80 1 -80 0 -80 -72 l0 -64 40 0 41 0
-16 -30 c-11 -21 -23 -30 -40 -30 -23 0 -25 -4 -25 -42 0 -28 -10 -61 -28 -93
l-27 -50 -62 2 -63 1 0 -69 0 -69 35 0 c39 0 39 0 23 -35 -7 -16 -19 -25 -35
-25 -22 0 -23 -3 -23 -71 0 -53 -9 -99 -35 -183 l-35 -111 -62 0 -63 0 -1 -67
-2 -68 48 0 c48 0 48 0 41 -28 -6 -23 -13 -27 -48 -30 l-41 -3 1 -69 c0 -38 3
-69 6 -68 3 0 16 0 28 -1 30 -1 19 -41 -11 -41 -20 0 -22 -5 -23 -63 -1 -34 3
-67 9 -74 5 -7 7 -17 4 -22 -4 -5 -9 -29 -12 -53 -3 -24 -7 -56 -9 -73 -22
-173 -44 -256 -39 -145 l3 50 -70 0 -70 0 3 -68 3 -67 60 -1 c44 0 63 4 72 15
10 14 12 13 8 -4 -15 -76 -11 -72 -62 -72 -90 -2 -83 4 -83 -68 0 -45 4 -65
13 -66 6 -1 34 -1 60 -1 43 0 48 -3 45 -22 -3 -21 -5 -22 -96 -25 -22 -1 -23
-4 -20 -68 l3 -68 35 -1 c67 -2 67 -2 62 -32 -3 -26 -7 -28 -50 -28 l-47 1 -3
-67 -3 -67 43 -3 c35 -2 43 -7 43 -23 0 -14 -7 -20 -25 -22 -14 0 -33 -1 -43
-2 -16 -1 -18 -9 -15 -68 l3 -68 38 1 c33 0 37 -2 37 -24 0 -22 -3 -24 -45
-20 -25 2 -46 -1 -46 -7 -1 -5 -1 -20 -2 -33 0 -12 -1 -22 -2 -22 -9 0 -62
101 -54 105 14 9 12 135 -3 136 -7 1 -28 2 -47 3 -23 1 -38 8 -49 24 l-15 23
59 -3 59 -3 0 70 0 69 -55 1 c-76 1 -79 -1 -76 -46 4 -54 -6 -49 -29 14 -14
36 -20 79 -20 142 0 89 0 90 -24 87 -23 -4 -41 11 -41 34 0 6 10 11 23 11 49
1 48 0 45 70 l-3 68 -41 -2 c-38 -2 -42 1 -47 25 -6 33 1 38 52 36 l41 -1 0
69 0 68 -49 0 c-32 0 -51 5 -54 13 -9 25 7 34 56 32 l47 -2 0 68 c0 76 3 73
-72 71 -24 -1 -28 3 -28 29 0 27 2 29 43 30 23 1 45 1 50 0 4 0 7 31 7 69 l0
70 -41 0 c-36 0 -40 2 -37 23 3 19 9 22 41 21 l37 -1 0 68 0 69 -31 0 c-24 0
-30 3 -25 16 3 9 6 22 6 30 0 8 10 14 26 14 l27 0 -5 82 c-3 54 0 100 9 133
17 62 21 78 22 89 1 5 4 6 8 3 4 -4 7 -31 8 -60 1 -28 3 -55 4 -58 0 -3 30 -6
66 -7 l65 -1 0 70 0 69 -70 0 c-70 0 -82 7 -56 33 10 9 32 13 70 11 l56 -3 0
70 0 69 -39 0 c-38 0 -39 1 -32 27 6 22 14 29 40 31 l32 3 -2 97 c-1 83 3 110
29 187 l30 90 69 5 68 5 1 68 2 68 -39 -4 c-45 -5 -62 4 -53 26 4 10 20 17 47
19 l42 3 1 68 c1 67 1 67 -26 67 -22 0 -27 4 -25 18 2 9 4 20 4 25 1 4 12 12
25 17 22 8 24 15 23 67 0 33 -5 63 -13 71 -14 13 -9 42 7 42 12 0 9 129 -2
136 -12 7 -11 51 1 59 5 3 9 35 8 70 -1 53 -5 66 -20 71 -10 3 -18 15 -18 26
0 14 5 18 15 14 18 -7 25 20 22 88 l-2 50 -39 2 c-34 1 -55 15 -56 36 0 4 21
8 48 10 l47 3 1 66 2 67 -67 -2 c-62 -1 -66 -3 -69 -25 -3 -21 -8 -16 -33 33
-23 45 -29 69 -29 120 0 68 -5 75 -50 71 -22 -2 -49 18 -50 38 0 4 23 7 50 7
l50 0 0 68 0 68 -67 -1 -68 0 1 -38 c0 -43 -12 -44 -35 -1 -9 16 -26 43 -39
58 -22 29 -28 47 -14 45 37 -6 42 1 42 66 0 45 -4 65 -12 66 -7 1 -41 1 -75 1
l-63 0 -25 45 c-18 30 -26 56 -24 81 3 43 -6 63 -25 56 -15 -6 -31 11 -40 42
-6 20 -3 22 29 18 39 -3 35 -12 38 94 l0 37 -56 3 c-42 2 -57 7 -57 17 0 8 0
18 0 22 0 4 22 8 49 8 28 0 52 3 56 6 12 12 9 120 -3 128 -7 4 -33 6 -59 5
-52 -3 -65 8 -54 40 7 18 16 20 64 18 l55 -2 4 54 c5 79 2 86 -38 86 -37 0
-39 2 -24 29 6 12 18 17 35 16 23 -3 25 0 25 36 0 35 6 46 52 89 29 28 60 51
68 51 8 1 30 2 48 3 26 0 32 4 32 23 0 24 39 54 41 31 1 -7 0 -19 -1 -27 -3
-21 13 -26 77 -25 l58 1 3 49 c4 54 8 63 40 69 21 4 22 0 22 -56 0 -40 4 -59
13 -60 6 -1 36 -2 65 -3 61 -1 65 5 60 91 l-4 51 40 6 c56 9 312 7 396 -4 10
-1 11 -3 3 -7 -16 -6 -18 -132 -3 -134 6 -1 36 -1 68 -2 l57 -1 3 64 c1 35 3
65 5 66 1 1 15 0 30 -3 21 -4 28 -11 26 -27 0 -11 -1 -39 0 -61 l1 -40 59 0
c33 0 63 4 68 8 4 5 8 27 8 50 0 42 3 47 30 47 11 0 15 -13 15 -53 l0 -52 58
2 c31 1 62 2 68 2 7 1 10 26 10 68 l-1 67 -40 1 c-29 0 -58 11 -105 41 -36 22
-101 59 -145 82 -84 43 -275 124 -275 117 0 -3 -12 0 -27 6 -67 26 -232 61
-358 75 -58 7 -401 15 -406 10z m359 -5954 c4 -42 -22 -43 -43 -3 -11 23 -12
30 -2 34 27 9 42 -1 45 -31z"/>
<path d="M3949 6000 c-22 -5 -24 -10 -25 -67 -1 -69 -1 -69 81 -69 l50 1 3 66
3 67 -44 3 c-24 2 -54 2 -68 -1z"/>
<path d="M5712 5873 l3 -68 55 -1 c80 0 80 0 80 72 l0 64 -70 0 -71 0 3 -67z"/>
<path d="M3396 5920 c-1 -3 -2 -32 -2 -65 l1 -60 35 -5 c19 -3 50 -3 68 -1
l33 3 -3 66 -3 66 -63 1 c-35 0 -65 -2 -66 -5z"/>
<path d="M5249 5926 c-1 -1 -3 -31 -4 -68 l-3 -67 32 -3 c17 -2 48 -1 69 1
l38 3 -3 67 -3 66 -62 1 c-35 0 -64 0 -64 0z"/>
<path d="M2992 5863 c-7 -16 -8 -44 -3 -105 1 -13 11 -16 54 -13 28 1 55 3 58
4 3 0 6 30 6 66 l0 65 -53 0 c-41 0 -55 -4 -62 -17z"/>
<path d="M3214 5813 l1 -68 65 0 65 0 3 68 3 67 -69 0 -69 0 1 -67z"/>
<path d="M4229 5873 c-1 -9 -1 -102 0 -119 1 -7 25 -11 68 -10 l67 1 1 68 1
67 -68 0 c-38 0 -68 -3 -69 -7z"/>
<path d="M2865 5837 c-71 -31 -75 -35 -75 -66 l0 -29 67 2 68 1 0 58 c1 31 -2
57 -5 57 -3 -1 -28 -11 -55 -23z"/>
<path d="M3898 5753 c-2 -5 -4 -35 -4 -68 l1 -60 65 0 65 0 3 68 3 67 -65 0
c-36 0 -66 -3 -68 -7z"/>
<path d="M3595 5741 c-3 -2 -5 -33 -5 -68 0 -43 4 -63 13 -64 65 -5 117 -2
120 6 2 5 5 36 6 68 1 41 -2 57 -11 58 -57 4 -119 4 -123 0z"/>
<path d="M4879 5715 c-2 -69 -1 -96 4 -101 4 -4 76 -8 118 -5 12 1 15 13 14
60 0 33 -4 63 -8 67 -4 4 -34 8 -67 9 -60 0 -60 0 -61 -30z"/>
<path d="M1659 5685 c-7 -1 -5 -131 2 -135 4 -3 34 -5 66 -4 l58 1 3 66 c2 37
-1 67 -5 68 -9 1 -122 5 -124 4z"/>
<path d="M1867 5682 c-15 -3 -17 -13 -15 -70 l3 -66 55 1 c30 1 60 2 66 2 6 1
10 27 10 68 l-1 67 -50 1 c-27 0 -58 -1 -68 -3z"/>
<path d="M2607 5682 c-14 -3 -17 -16 -17 -68 0 -35 4 -64 10 -65 6 -1 36 -1
68 -2 l57 -1 2 67 c2 37 0 67 -5 68 -27 3 -101 3 -115 1z"/>
<path d="M2807 5682 c-17 -4 -24 -36 -19 -97 l4 -41 64 1 c35 0 64 5 65 10 6
60 4 117 -4 122 -11 7 -83 10 -110 5z"/>
<path d="M2980 5682 c-6 -2 -10 -34 -10 -70 l0 -67 48 1 c95 3 88 -1 90 57 2
79 0 82 -63 82 -30 0 -60 -1 -65 -3z"/>
<path d="M3214 5615 l1 -69 58 1 c31 1 62 1 67 2 15 2 13 131 -2 132 -7 1 -38
2 -69 3 l-57 1 2 -70z"/>
<path d="M4519 5668 c-4 -10 -5 -116 -1 -125 3 -9 26 -13 68 -13 l64 0 0 70 0
70 -65 0 c-36 0 -65 -1 -66 -2z"/>
<path d="M3377 5560 c-8 -3 -13 -28 -13 -70 l0 -66 66 1 65 0 3 68 c2 49 0 67
-10 68 -51 4 -101 3 -111 -1z"/>
<path d="M3775 5536 c-2 -6 -3 -37 -3 -68 l1 -58 68 0 69 0 0 68 0 69 -66 -1
c-38 0 -67 -4 -69 -10z"/>
<path d="M4155 5542 c-3 -3 -5 -34 -5 -69 l0 -64 68 3 67 3 0 65 0 65 -63 1
c-34 0 -64 -2 -67 -4z"/>
<path d="M5575 5463 l1 -68 64 0 65 0 5 40 c3 22 3 52 1 68 -3 26 -5 27 -70
27 l-67 0 1 -67z"/>
<path d="M1109 5498 c-17 -7 -19 -16 -18 -71 l2 -63 61 2 c33 1 64 2 69 3 4 0
7 30 7 65 l0 64 -51 4 c-27 1 -59 0 -70 -4z"/>
<path d="M1325 5500 l-50 -5 0 -65 0 -65 68 0 67 -1 0 67 c0 76 -2 77 -85 69z"/>
<path d="M1688 5502 l-37 -3 2 -67 2 -67 55 -1 c79 -1 80 0 80 71 l0 63 -32 3
c-18 2 -50 3 -70 1z"/>
<path d="M1867 5502 c-14 -3 -17 -16 -17 -71 l0 -67 68 1 67 1 1 67 c1 61 -1
67 -20 68 -12 0 -35 1 -52 2 -17 1 -38 1 -47 -1z"/>
<path d="M2040 5502 c-15 -5 -13 -129 3 -134 6 -2 37 -4 67 -4 l55 1 2 67 2
66 -60 4 c-32 1 -64 2 -69 0z"/>
<path d="M2253 5502 c-21 -3 -23 -9 -23 -71 l0 -68 65 1 c36 0 65 2 66 5 1 3
2 34 3 68 l2 61 -46 4 c-25 2 -55 2 -67 0z"/>
<path d="M2453 5502 l-43 -3 0 -67 0 -67 68 0 67 0 1 67 c1 64 0 66 -25 70
-14 1 -45 2 -68 0z"/>
<path d="M2600 5502 c-6 -2 -10 -32 -10 -67 0 -73 3 -75 85 -71 l50 2 3 66 3
66 -61 4 c-33 1 -65 2 -70 0z"/>
<path d="M3590 5500 l-45 -5 0 -58 c0 -33 2 -62 5 -66 7 -10 130 -8 131 1 0 5
1 28 1 53 0 25 -1 51 -1 59 -1 17 -32 23 -91 16z"/>
<path d="M1470 5436 c0 -72 0 -72 80 -72 l55 1 3 68 2 67 -70 0 -70 0 0 -64z"/>
<path d="M2790 5432 l0 -68 67 1 68 0 0 68 0 67 -67 0 -68 0 0 -68z"/>
<path d="M2972 5433 l3 -67 55 -2 c30 -1 60 1 67 3 7 3 11 28 11 69 l-1 64
-69 0 -69 0 3 -67z"/>
<path d="M3167 5438 c0 -35 2 -65 2 -68 1 -8 114 -6 126 2 6 3 10 33 10 65 l0
58 -70 3 -70 3 2 -63z"/>
<path d="M3925 5443 c2 -32 3 -63 4 -68 0 -6 28 -10 64 -10 l62 0 5 40 c3 22
3 52 1 68 -3 26 -5 27 -70 27 l-68 0 2 -57z"/>
<path d="M5182 5439 c-16 -6 -19 -29 -13 -119 1 -12 15 -15 66 -16 36 0 65 2
66 5 1 9 1 105 0 118 -1 12 -92 22 -119 12z"/>
<path d="M4744 5416 c-2 -6 -2 -36 -1 -66 l2 -55 68 -3 68 -3 -3 68 -3 68 -63
1 c-38 0 -65 -4 -68 -10z"/>
<path d="M4361 5361 c-11 -7 -14 -24 -12 -83 l1 -46 61 -4 c33 -1 64 2 68 7 6
8 7 92 2 123 -1 8 -107 11 -120 3z"/>
<path d="M1094 5306 c-3 -7 -4 -38 -2 -67 l3 -54 68 -1 67 -1 0 69 0 68 -65 0
c-47 0 -67 -4 -71 -14z"/>
<path d="M1277 5313 c-2 -5 -3 -35 -3 -68 l1 -60 68 -1 67 -2 0 69 0 69 -64 0
c-36 0 -67 -3 -69 -7z"/>
<path d="M1477 5313 c-4 -3 -7 -34 -7 -69 l0 -62 68 1 67 2 2 68 2 67 -63 0
c-34 0 -66 -3 -69 -7z"/>
<path d="M1654 5253 l1 -68 68 -1 67 -1 0 69 0 68 -68 0 -69 0 1 -67z"/>
<path d="M1850 5251 l0 -70 53 1 c85 1 84 0 83 71 l-1 62 -67 3 -68 3 0 -70z"/>
<path d="M2036 5311 c-4 -6 -6 -37 -5 -69 l2 -60 51 0 c83 0 84 0 82 71 l-1
62 -62 3 c-34 2 -64 -2 -67 -7z"/>
<path d="M2230 5252 l0 -69 53 -1 c83 -1 83 0 83 71 l-1 62 -68 3 -67 3 0 -69z"/>
<path d="M2412 5253 l3 -68 65 0 65 0 0 65 0 65 -68 3 -68 3 3 -68z"/>
<path d="M2592 5252 l3 -67 65 0 65 0 0 65 0 65 -68 2 -68 2 3 -67z"/>
<path d="M2790 5251 l0 -69 68 1 67 2 0 65 0 65 -67 3 -68 3 0 -70z"/>
<path d="M2970 5252 l0 -69 68 1 67 1 0 65 0 65 -67 3 -68 3 0 -69z"/>
<path d="M3169 5310 c-1 -5 -1 -26 -1 -45 0 -90 -5 -84 67 -83 70 1 67 -2 67
68 1 73 4 70 -67 70 -36 0 -65 -4 -66 -10z"/>
<path d="M3350 5251 l0 -69 68 1 67 2 0 65 0 65 -67 3 -68 3 0 -70z"/>
<path d="M3549 5303 c-1 -10 -2 -40 -2 -68 l-1 -50 68 0 69 0 0 50 c-1 91 4
85 -68 85 -55 0 -65 -3 -66 -17z"/>
<path d="M3729 5300 c-1 -11 -1 -31 -1 -45 0 -75 -4 -71 66 -72 41 -1 66 3 68
11 2 6 3 36 3 66 l0 55 -67 3 c-63 3 -68 1 -69 -18z"/>
<path d="M4109 5303 c-4 -44 -4 -99 -1 -109 2 -7 29 -11 70 -11 l67 0 -2 51
c0 28 -2 59 -2 69 -1 14 -11 17 -66 17 -55 0 -65 -3 -66 -17z"/>
<path d="M4197 5161 c-2 -5 -1 -92 2 -121 1 -11 130 -14 132 -2 4 29 5 109 1
120 -3 9 -24 12 -68 11 -36 -1 -66 -5 -67 -8z"/>
<path d="M5027 5150 c-9 -3 -13 -27 -12 -69 l0 -65 57 -1 c31 -1 62 1 68 5 9
6 15 72 11 125 -1 10 -101 14 -124 5z"/>
<path d="M5579 5145 c-6 -53 -4 -117 5 -123 6 -4 37 -7 69 -7 55 -1 57 0 58
24 0 14 1 45 2 69 1 23 -2 42 -8 43 -55 5 -125 2 -126 -6z"/>
<path d="M1113 5122 c-21 -3 -22 -8 -20 -70 l2 -67 65 1 65 0 3 67 c2 41 -1
67 -8 68 -30 3 -88 4 -107 1z"/>
<path d="M1281 5120 c-4 -3 -7 -34 -7 -70 l1 -64 65 0 65 0 3 67 c2 37 -1 67
-5 68 -40 3 -116 3 -122 -1z"/>
<path d="M1487 5122 c-14 -3 -17 -15 -17 -67 0 -41 4 -64 13 -67 10 -4 98 -3
119 1 12 2 6 131 -6 132 -47 3 -94 4 -109 1z"/>
<path d="M1653 5058 c0 -41 4 -68 11 -70 6 -2 36 -3 66 -3 l55 0 3 68 c2 41
-1 67 -8 68 -5 1 -36 2 -68 3 l-59 1 0 -67z"/>
<path d="M1861 5122 c-12 -4 -16 -131 -3 -133 22 -4 109 -5 118 -2 6 2 10 32
10 68 0 58 -2 65 -21 66 -11 0 -36 2 -56 3 -20 1 -41 0 -48 -2z"/>
<path d="M2032 5055 l3 -70 65 1 65 0 3 67 c2 49 -1 67 -10 68 -7 0 -39 1 -71
2 l-58 2 3 -70z"/>
<path d="M2247 5122 c-18 -4 -24 -35 -19 -97 l4 -41 64 1 c35 0 65 2 65 5 4
18 3 130 -1 131 -21 3 -99 3 -113 1z"/>
<path d="M2410 5058 c0 -38 3 -69 8 -69 21 -4 108 -5 117 -2 13 4 16 133 4
134 -5 1 -36 2 -69 3 l-60 1 0 -67z"/>
<path d="M2599 5119 c-6 -3 -9 -35 -7 -70 l3 -64 55 1 c30 1 60 2 67 3 16 1
17 131 0 132 -51 4 -111 3 -118 -2z"/>
<path d="M2807 5122 c-14 -3 -17 -15 -17 -67 0 -41 4 -64 13 -67 10 -4 102 -3
117 1 9 2 6 118 -2 127 -8 7 -82 11 -111 6z"/>
<path d="M2973 5114 c-2 -6 -3 -38 -1 -70 l3 -58 55 -1 c30 -1 60 0 66 2 8 3
11 28 10 70 l-1 66 -64 1 c-38 1 -65 -3 -68 -10z"/>
<path d="M3169 5115 c0 -5 -1 -36 -2 -67 -2 -52 0 -58 18 -59 97 -6 106 -5
114 10 9 19 7 108 -3 118 -11 11 -126 9 -127 -2z"/>
<path d="M3367 5122 c-14 -3 -17 -16 -17 -71 l0 -67 58 2 c31 1 62 2 68 3 12
1 13 115 2 127 -8 7 -82 11 -111 6z"/>
<path d="M3557 5120 c-13 -5 -17 -107 -5 -125 5 -9 67 -12 123 -6 11 1 13 116
2 127 -8 8 -103 11 -120 4z"/>
<path d="M3755 5122 c-30 -3 -30 -3 -28 -64 1 -33 5 -63 8 -66 7 -8 125 -10
126 -2 7 38 3 123 -5 126 -17 6 -68 9 -101 6z"/>
<path d="M3981 5122 c-7 -2 -11 -29 -11 -71 l0 -67 63 2 c34 1 65 2 68 3 3 0
6 30 6 66 0 59 -2 65 -21 66 -12 0 -37 2 -57 3 -20 1 -41 0 -48 -2z"/>
<path d="M4425 5030 c-30 -5 -31 -6 -30 -60 0 -30 3 -60 7 -66 6 -9 71 -12
121 -5 4 1 7 30 7 65 l0 64 -37 3 c-21 2 -52 2 -68 -1z"/>
<path d="M4699 5028 c-4 -14 -4 -120 1 -126 3 -4 33 -7 68 -8 69 0 63 -8 65
86 l1 45 -67 3 c-37 2 -67 2 -68 0z"/>
<path d="M4163 4983 c-9 -3 -13 -27 -13 -69 l0 -64 70 0 70 0 -2 67 -3 68 -55
1 c-30 1 -61 -1 -67 -3z"/>
<path d="M1134 4942 l-41 -3 -2 -65 c-1 -35 2 -65 6 -65 5 -1 36 -2 71 -3 l62
-2 0 67 c0 65 -1 67 -27 70 -16 2 -47 3 -69 1z"/>
<path d="M1305 4940 c-29 -5 -30 -7 -31 -68 0 -34 2 -63 5 -63 3 -1 34 -2 69
-3 l62 -2 0 67 0 67 -38 4 c-21 1 -51 1 -67 -2z"/>
<path d="M1683 4942 l-33 -3 3 -67 2 -66 65 -1 65 0 3 66 3 67 -38 3 c-21 2
-53 3 -70 1z"/>
<path d="M2068 4942 l-38 -3 0 -64 c0 -71 1 -72 80 -70 l55 0 3 67 3 66 -33 3
c-18 2 -50 3 -70 1z"/>
<path d="M2263 4942 l-33 -3 0 -67 0 -67 63 -1 c34 0 64 3 67 7 3 4 5 34 5 66
l0 58 -35 5 c-19 3 -50 4 -67 2z"/>
<path d="M2643 4942 l-53 -3 0 -65 c0 -35 3 -65 8 -65 24 -4 109 -5 120 -1 8
3 12 26 12 67 0 71 -1 72 -87 67z"/>
<path d="M3610 4940 l-65 -5 1 -60 c1 -33 2 -63 3 -66 1 -3 31 -5 68 -4 l67 1
-1 68 c-1 37 -3 68 -5 69 -1 1 -32 0 -68 -3z"/>
<path d="M1470 4872 l0 -67 68 -1 68 0 1 68 0 68 -69 0 -68 0 0 -68z"/>
<path d="M1850 4873 l0 -69 63 2 c34 1 64 2 67 3 3 0 6 29 5 64 l0 62 -67 3
-68 3 0 -68z"/>
<path d="M2410 4872 l0 -68 63 2 c34 1 65 2 68 3 4 0 6 30 6 66 l0 65 -69 0
-68 0 0 -68z"/>
<path d="M2788 4879 c-1 -33 2 -64 7 -68 6 -4 37 -7 70 -6 l60 0 0 68 0 67
-66 0 -67 0 -4 -61z"/>
<path d="M2970 4872 l0 -67 65 -1 c73 -1 73 -1 73 84 l0 52 -69 0 -69 0 0 -68z"/>
<path d="M3169 4936 c-3 -3 -4 -33 -3 -68 l2 -62 66 -2 c36 -1 67 2 67 5 1 3
2 34 3 69 l1 62 -66 0 c-36 0 -68 -2 -70 -4z"/>
<path d="M3350 4872 l0 -68 63 2 c34 1 65 2 68 3 3 0 5 30 5 66 l-1 65 -67 0
-68 0 0 -68z"/>
<path d="M3925 4873 l0 -68 65 0 65 0 5 57 c3 32 4 62 2 68 -2 5 -34 10 -70
10 l-67 0 0 -67z"/>
<path d="M4969 4876 c-2 -2 -3 -33 -1 -69 l4 -64 66 1 67 1 1 68 2 67 -68 0
c-36 0 -69 -2 -71 -4z"/>
<path d="M4517 4813 c-3 -7 -2 -102 2 -123 1 -3 30 -6 65 -7 l64 -1 4 46 c6
90 5 92 -67 92 -35 0 -66 -3 -68 -7z"/>
<path d="M5402 4801 c-5 -3 -9 -34 -9 -68 l-1 -63 69 0 69 0 0 65 c0 36 -3 65
-7 66 -32 5 -114 4 -121 0z"/>
<path d="M5932 4795 c-3 -5 -7 -36 -8 -67 l-1 -58 69 0 69 0 -3 67 -3 68 -58
0 c-32 1 -61 -4 -65 -10z"/>
<path d="M1094 4741 c-2 -2 -4 -33 -4 -68 0 -66 0 -65 50 -65 11 0 36 0 55 1
l35 1 0 65 c0 36 -3 66 -7 66 -24 4 -125 4 -129 0z"/>
<path d="M1279 4740 c-1 -3 -3 -33 -3 -67 -2 -70 -9 -64 82 -66 l47 -1 0 69 0
69 -62 1 c-35 0 -64 -2 -64 -5z"/>
<path d="M1483 4743 c-9 -3 -13 -27 -13 -71 l0 -67 68 1 67 1 2 66 c1 37 -1
67 -5 68 -25 4 -109 5 -119 2z"/>
<path d="M1661 4741 c-5 -3 -9 -34 -9 -68 0 -68 -2 -65 63 -65 82 0 76 -5 73
69 l-3 67 -57 1 c-32 1 -62 -1 -67 -4z"/>
<path d="M1853 4734 c-2 -6 -3 -38 -1 -70 l3 -58 45 1 c98 3 89 -4 87 68 -1
36 -4 66 -7 66 -29 7 -123 2 -127 -7z"/>
<path d="M2035 4741 c-3 -2 -5 -33 -5 -68 0 -58 2 -63 23 -64 25 -1 86 -1 103
0 7 1 11 26 10 68 l-1 67 -63 1 c-35 0 -65 -1 -67 -4z"/>
<path d="M2228 4682 c-2 -43 1 -66 9 -69 24 -9 123 -8 126 2 2 5 3 37 2 69 l0
60 -67 1 -66 2 -4 -65z"/>
<path d="M2414 4741 c-9 -9 -4 -131 6 -132 6 0 30 0 55 0 25 0 51 0 59 0 10 1
13 18 12 66 0 36 -3 66 -6 66 -15 4 -122 4 -126 0z"/>
<path d="M2594 4741 c-9 -9 -4 -131 6 -132 6 0 30 -1 55 -1 25 0 52 1 60 1 11
1 14 15 12 68 l-2 67 -63 1 c-35 0 -65 -1 -68 -4z"/>
<path d="M2789 4706 c-1 -48 1 -89 7 -95 3 -3 78 -5 114 -2 13 1 16 15 15 68
l0 67 -68 1 -67 2 -1 -41z"/>
<path d="M2974 4741 c-2 -2 -4 -33 -4 -68 l0 -63 30 -1 c113 -5 108 -8 108 69
l0 67 -65 0 c-35 0 -66 -1 -69 -4z"/>
<path d="M3172 4740 c-4 -3 -7 -33 -7 -67 -1 -69 -8 -63 78 -65 58 -2 63 4 61
68 -1 33 -2 61 -3 64 -1 7 -120 7 -129 0z"/>
<path d="M3350 4676 l0 -71 47 2 c27 1 57 2 68 2 18 1 20 8 20 66 0 36 -2 65
-5 66 -3 1 -33 2 -67 3 l-63 3 0 -71z"/>
<path d="M3557 4739 c-11 -6 -15 -72 -8 -124 1 -10 130 -15 132 -5 5 25 3 114
-3 123 -8 13 -100 17 -121 6z"/>
<path d="M3729 4718 c-5 -118 -7 -114 62 -111 34 1 64 5 67 8 8 7 10 125 2
126 -3 1 -33 2 -67 3 -62 2 -63 2 -64 -26z"/>
<path d="M4112 4740 c-6 -4 -8 -74 -3 -120 1 -12 15 -15 61 -14 33 1 63 4 67
7 10 11 9 118 -2 125 -12 8 -114 9 -123 2z"/>
<path d="M4639 4618 c-5 -31 -4 -115 2 -123 8 -11 116 -11 126 -1 11 11 9 126
-2 127 -54 4 -125 2 -126 -3z"/>
<path d="M4380 4525 l0 -71 63 2 c34 1 64 2 68 3 3 1 5 30 5 66 0 58 -3 65
-21 66 -11 0 -41 2 -68 2 l-47 2 0 -70z"/>
<path d="M1282 4555 c-12 -18 -11 -123 2 -127 9 -4 97 -3 119 1 4 0 7 30 7 66
0 55 -3 65 -17 66 -78 4 -106 3 -111 -6z"/>
<path d="M1487 4562 c-14 -3 -17 -15 -17 -68 0 -35 3 -64 8 -65 30 -4 109 -5
120 -1 15 5 13 132 -3 133 -43 3 -93 4 -108 1z"/>
<path d="M1672 4562 c-21 -3 -22 -8 -20 -70 l3 -67 65 1 65 0 3 67 c3 59 1 67
-15 68 -10 0 -31 1 -48 2 -16 1 -40 1 -53 -1z"/>
<path d="M1853 4554 c-2 -6 -3 -38 -1 -70 l3 -59 65 0 65 0 0 68 c1 61 -1 67
-20 68 -11 0 -40 1 -64 3 -25 1 -45 -3 -48 -10z"/>
<path d="M2039 4559 c-6 -3 -9 -35 -7 -70 l3 -63 50 -1 c83 -1 83 -1 84 71 0
35 -3 64 -7 65 -39 4 -116 3 -123 -2z"/>
<path d="M2239 4559 c-6 -3 -9 -35 -7 -70 l3 -64 55 1 c30 1 60 2 65 3 6 0 11
30 11 66 0 52 -3 65 -15 66 -64 4 -104 3 -112 -2z"/>
<path d="M2412 4495 l3 -70 65 0 65 0 1 68 c0 37 -2 67 -5 68 -3 0 -34 2 -69
2 l-63 2 3 -70z"/>
<path d="M2599 4556 c-11 -12 -12 -126 -1 -127 29 -4 109 -5 120 -1 13 5 18
131 5 133 -52 5 -116 2 -124 -5z"/>
<path d="M2794 4555 c-2 -5 -4 -36 -6 -68 -2 -40 1 -57 10 -58 36 -4 108 -5
117 -2 12 4 14 117 2 129 -11 11 -119 10 -123 -1z"/>
<path d="M2992 4562 c-22 -3 -23 -7 -20 -70 l3 -67 65 1 65 0 0 69 0 68 -45 1
c-25 1 -55 0 -68 -2z"/>
<path d="M3176 4555 c-9 -9 -13 -87 -7 -126 1 -5 54 -5 121 0 12 1 16 14 15
60 0 33 -3 63 -7 66 -11 11 -110 11 -122 0z"/>
<path d="M3360 4562 c-15 -5 -13 -129 3 -134 10 -4 102 -3 117 1 3 0 6 30 6
66 1 53 -1 65 -15 66 -57 3 -102 4 -111 1z"/>
<path d="M3563 4559 c-15 -5 -18 -16 -17 -60 1 -30 2 -59 3 -64 1 -11 115 -14
126 -3 4 4 8 34 8 67 2 48 -1 61 -13 62 -8 0 -32 2 -52 3 -20 1 -45 -1 -55 -5z"/>
<path d="M3729 4533 c-1 -42 -1 -79 0 -96 1 -10 17 -13 59 -12 32 1 62 4 68 7
5 4 9 35 9 69 l-1 63 -67 0 -67 1 -1 -32z"/>
<path d="M3970 4499 c0 -45 4 -68 13 -71 10 -4 99 -3 118 1 3 0 6 30 6 66 0
59 -1 65 -21 66 -11 0 -42 1 -69 2 l-47 2 0 -66z"/>
<path d="M5399 4395 c-1 0 -3 -30 -4 -67 l-2 -68 69 0 68 0 0 68 0 67 -65 0
c-36 0 -66 0 -66 0z"/>
<path d="M1470 4299 l0 -69 69 0 70 0 -1 68 -1 68 -68 1 -69 0 0 -68z"/>
<path d="M1656 4361 c-2 -3 -3 -34 -3 -68 l0 -63 68 0 69 0 0 68 0 68 -65 0
c-36 1 -67 -2 -69 -5z"/>
<path d="M1850 4298 l0 -68 68 0 69 0 -1 65 c0 36 -2 66 -5 66 -4 1 -34 2 -68
3 l-63 2 0 -68z"/>
<path d="M2035 4361 c-3 -2 -5 -33 -5 -68 l0 -63 69 0 69 0 -2 68 -1 67 -63 1
c-34 0 -65 -2 -67 -5z"/>
<path d="M2230 4299 l0 -69 68 0 68 0 -2 63 c-1 34 -2 64 -3 67 0 3 -30 6 -66
6 l-65 1 0 -68z"/>
<path d="M2416 4362 c-3 -3 -6 -34 -6 -69 l0 -63 68 0 68 0 0 65 c0 36 -2 65
-5 66 -29 5 -121 6 -125 1z"/>
<path d="M2595 4362 c-3 -3 -5 -34 -5 -69 l0 -63 69 0 69 0 -1 67 -2 68 -62 1
c-34 1 -65 -1 -68 -4z"/>
<path d="M2788 4314 c-5 -84 -5 -84 68 -84 35 0 65 3 65 8 4 24 4 122 -1 123
-3 1 -33 3 -67 4 l-61 1 -4 -52z"/>
<path d="M2976 4362 c-3 -3 -6 -34 -6 -69 l0 -63 69 0 69 0 -1 67 -2 67 -62 2
c-34 1 -64 -1 -67 -4z"/>
<path d="M3169 4356 c-1 -6 -1 -36 -2 -66 l-1 -55 70 0 69 0 0 55 c0 30 -1 60
-3 66 -4 14 -132 14 -133 0z"/>
<path d="M3350 4299 l0 -67 50 -4 c80 -5 85 -1 85 71 0 33 -2 61 -5 62 -3 1
-33 2 -67 3 l-63 3 0 -68z"/>
<path d="M3549 4366 c-1 0 -2 -31 -3 -68 l-1 -68 70 0 70 0 -1 55 c-1 30 -2
61 -3 68 -1 8 -21 13 -66 13 -36 1 -65 1 -66 0z"/>
<path d="M3729 4344 c-5 -117 -7 -114 65 -114 42 0 65 4 68 13 4 10 3 100 -1
117 0 3 -30 6 -66 6 -62 1 -65 0 -66 -22z"/>
<path d="M4109 4355 c-4 -42 -5 -102 -1 -112 3 -9 26 -13 68 -13 54 0 64 3 65
18 1 20 1 104 0 113 -2 10 -131 5 -132 -6z"/>
<path d="M4929 4366 c-1 -1 -2 -31 -4 -68 l-3 -68 69 0 70 0 -3 68 -3 67 -62
1 c-35 0 -63 0 -64 0z"/>
<path d="M4558 4300 c-9 -3 -13 -25 -14 -67 -1 -51 2 -63 15 -64 125 -4 121
-5 122 16 2 65 0 107 -6 113 -8 8 -97 10 -117 2z"/>
<path d="M1480 4180 c-7 -4 -10 -31 -8 -71 l3 -64 55 2 c30 0 60 1 67 2 8 1
11 23 10 68 l-2 67 -57 1 c-31 1 -62 -1 -68 -5z"/>
<path d="M1662 4181 c-6 -3 -10 -34 -10 -68 0 -51 3 -63 17 -64 54 -4 98 -4
109 -1 13 4 18 131 5 133 -33 5 -114 5 -121 0z"/>
<path d="M1860 4180 c-7 -4 -10 -31 -8 -71 l3 -63 50 1 c28 1 57 2 66 2 12 1
15 14 15 66 0 36 -2 65 -5 66 -27 5 -112 5 -121 -1z"/>
<path d="M2043 4183 c-9 -3 -13 -26 -13 -69 0 -54 3 -64 18 -65 20 -2 105 -1
113 0 8 1 10 131 1 132 -25 4 -109 5 -119 2z"/>
<path d="M2228 4122 c-2 -35 1 -66 6 -69 11 -7 126 -10 127 -3 7 32 3 123 -5
128 -6 4 -37 7 -68 7 l-56 1 -4 -64z"/>
<path d="M2414 4181 c-2 -2 -4 -33 -4 -68 0 -69 -3 -66 70 -65 70 0 66 -3 66
67 0 36 -2 66 -5 66 -18 4 -123 4 -127 0z"/>
<path d="M2607 4182 c-26 -5 -25 -131 1 -133 56 -4 98 -4 108 -1 7 2 12 29 12
70 l0 67 -52 0 c-29 0 -60 -1 -69 -3z"/>
<path d="M2806 4182 c-14 -3 -16 -14 -14 -70 l3 -66 55 1 c30 1 60 2 65 2 14
1 14 131 0 132 -26 3 -93 4 -109 1z"/>
<path d="M2975 4181 c-8 -8 -5 -131 3 -132 10 -1 82 -1 109 0 20 1 22 6 21 66
-1 52 -4 65 -17 66 -52 4 -113 4 -116 0z"/>
<path d="M3169 4176 c-10 -119 -4 -132 64 -130 30 1 59 4 64 7 7 4 10 102 4
127 -2 10 -131 6 -132 -4z"/>
<path d="M3350 4118 c0 -38 4 -68 10 -69 6 0 30 -1 55 -1 25 0 51 1 58 1 10 1
13 19 12 68 l-1 67 -67 1 -67 2 0 -69z"/>
<path d="M3563 4180 c-15 -4 -18 -16 -19 -67 0 -50 3 -63 15 -64 68 -5 114 -3
119 6 10 16 8 116 -2 123 -12 7 -89 9 -113 2z"/>
<path d="M3733 4176 c-7 -11 -7 -111 0 -123 3 -5 23 -8 44 -7 21 1 50 3 64 3
24 1 25 3 23 64 -1 34 -2 64 -3 67 -2 9 -123 5 -128 -4z"/>
<path d="M3932 4175 c-11 -17 -9 -125 3 -126 5 0 35 -1 65 -2 l55 -2 5 63 c3
38 1 67 -5 70 -16 11 -116 8 -123 -3z"/>
<path d="M4153 4174 c-2 -6 -3 -38 -1 -70 l3 -58 58 1 c31 1 61 1 67 2 10 1
12 130 2 132 -37 7 -125 2 -129 -7z"/>
<path d="M4726 4092 c-14 -3 -16 -14 -14 -70 l3 -67 65 0 65 0 3 68 c3 59 1
67 -15 68 -56 3 -91 4 -107 1z"/>
<path d="M5082 4032 c-22 -3 -23 -7 -20 -70 l3 -67 58 0 c57 0 57 0 58 30 2
45 0 98 -5 102 -5 5 -68 9 -94 5z"/>
<path d="M5569 4032 c-25 -3 -25 -5 -24 -70 l1 -67 63 -1 c34 0 65 4 68 9 10
16 8 119 -2 123 -17 6 -79 10 -106 6z"/>
<path d="M1659 3982 c-1 -4 -3 -35 -5 -69 l-3 -63 69 0 70 0 0 68 0 67 -65 2
c-36 1 -66 -1 -66 -5z"/>
<path d="M1850 3918 l0 -68 68 0 68 0 0 68 0 69 -68 0 -68 0 0 -69z"/>
<path d="M2035 3982 c-3 -3 -5 -34 -5 -69 l0 -63 70 0 70 0 -3 68 -2 67 -62 1
c-35 0 -65 -1 -68 -4z"/>
<path d="M2228 3966 c-2 -12 -1 -42 0 -68 l4 -48 67 0 67 0 -1 65 c0 74 -1 74
-82 73 -45 -1 -52 -4 -55 -22z"/>
<path d="M2416 3983 c-3 -4 -6 -35 -6 -70 l0 -63 68 0 68 0 -1 68 0 67 -61 2
c-34 1 -65 -1 -68 -4z"/>
<path d="M2595 3982 c-3 -3 -5 -34 -5 -69 l0 -63 70 0 71 0 -3 68 -3 67 -62 1
c-34 1 -65 -1 -68 -4z"/>
<path d="M2790 3918 l0 -68 65 0 c36 0 66 3 66 8 4 25 5 109 2 118 -3 7 -29
11 -69 11 l-64 -1 0 -68z"/>
<path d="M2970 3918 l0 -68 68 0 68 0 -1 58 c-1 31 -2 62 -3 68 -1 7 -26 11
-67 11 l-65 -1 0 -68z"/>
<path d="M3169 3981 c0 -3 -1 -33 -2 -66 l-2 -60 69 0 69 0 2 58 c0 31 -1 61
-4 65 -7 9 -131 12 -132 3z"/>
<path d="M3350 3919 l0 -69 68 0 69 0 -2 63 c-1 34 -3 65 -3 68 -1 3 -31 6
-67 6 l-65 1 0 -69z"/>
<path d="M3549 3976 c-1 -6 -2 -37 -3 -69 l-1 -58 69 3 69 3 0 55 c0 30 -1 60
-2 66 -1 15 -131 15 -132 0z"/>
<path d="M3733 3975 c-4 -13 -6 -57 -4 -103 1 -22 4 -23 68 -20 l67 3 1 63 c1
70 0 71 -83 70 -26 0 -45 -5 -49 -13z"/>
<path d="M3929 3986 c0 0 -2 -31 -3 -68 l-3 -68 68 0 67 0 4 55 c1 31 1 61 -2
68 -3 8 -29 13 -67 13 -35 1 -63 1 -64 0z"/>
<path d="M4396 3950 c-2 -3 -2 -32 -2 -65 l1 -60 68 -3 67 -3 0 69 0 69 -66
-1 c-36 0 -67 -3 -68 -6z"/>
<path d="M3987 3813 c-2 -5 -3 -28 -2 -53 4 -85 -1 -79 68 -77 l62 2 5 35 c3
19 3 50 1 68 l-3 32 -64 0 c-34 0 -65 -3 -67 -7z"/>
<path d="M4579 3818 c-5 -10 -4 -128 0 -129 4 -1 34 -2 69 -4 l62 -2 1 33 c1
19 1 43 1 54 0 50 1 50 -67 50 -36 0 -66 -1 -66 -2z"/>
<path d="M1652 3738 l0 -68 70 0 69 0 -3 67 -3 68 -66 0 -67 1 0 -68z"/>
<path d="M1861 3802 c-6 -2 -11 -30 -11 -67 0 -61 1 -63 28 -66 15 -2 45 -2
67 1 l40 5 0 65 0 65 -57 0 c-31 1 -61 -1 -67 -3z"/>
<path d="M2042 3802 c-8 -2 -12 -28 -12 -68 l0 -65 68 3 67 3 0 65 0 65 -56 1
c-30 0 -61 -2 -67 -4z"/>
<path d="M2228 3754 c-2 -28 -2 -58 0 -67 3 -17 58 -25 107 -17 29 5 29 6 30
68 0 34 -2 63 -5 63 -3 1 -33 3 -67 4 l-61 1 -4 -52z"/>
<path d="M2415 3802 c-3 -3 -5 -34 -5 -69 l0 -63 68 0 68 0 -1 67 0 67 -63 1
c-34 1 -64 -1 -67 -3z"/>
<path d="M2594 3801 c-2 -2 -4 -33 -4 -68 l0 -63 70 0 71 0 -3 67 -3 68 -63 0
c-35 0 -65 -2 -68 -4z"/>
<path d="M2790 3738 l0 -68 68 0 68 0 -2 63 c-1 34 -2 65 -3 68 0 3 -30 5 -66
5 l-65 -1 0 -67z"/>
<path d="M2970 3738 l0 -68 69 0 69 0 -2 67 -1 67 -67 1 -68 1 0 -68z"/>
<path d="M3169 3788 c0 -10 -1 -39 -2 -65 l-1 -48 70 -3 69 -3 0 60 c0 33 -4
63 -9 68 -4 4 -34 8 -67 8 -50 1 -59 -2 -60 -17z"/>
<path d="M3350 3738 l0 -68 68 0 68 0 -1 63 c-1 34 -3 64 -4 67 0 3 -30 5 -66
5 l-65 1 0 -68z"/>
<path d="M3738 3799 c-6 -4 -11 -34 -12 -68 l-1 -61 66 0 c45 0 68 4 71 13 4
10 3 100 -1 117 -2 8 -110 7 -123 -1z"/>
<path d="M3548 3783 c-2 -5 -3 -35 -3 -68 l0 -60 70 -1 70 -2 0 69 0 69 -67 0
c-37 0 -68 -3 -70 -7z"/>
<path d="M4150 3600 l0 -70 69 0 69 0 0 70 0 70 -69 0 -69 0 0 -70z"/>
<path d="M5009 3649 c-6 -3 -9 -34 -7 -69 l3 -64 55 1 c30 1 60 2 66 2 11 1
17 130 5 132 -32 4 -114 3 -122 -2z"/>
<path d="M1654 3615 c-1 -5 -2 -37 -1 -70 l2 -59 58 1 c31 1 62 1 67 2 11 1
14 130 3 132 -38 7 -126 2 -129 -6z"/>
<path d="M1854 3621 c-2 -2 -4 -34 -4 -71 l0 -66 60 1 c33 1 63 5 68 9 10 11
11 126 1 127 -29 3 -121 3 -125 0z"/>
<path d="M2040 3620 c-7 -4 -10 -32 -8 -71 l3 -64 50 0 c76 0 82 5 84 75 1 33
-2 60 -6 61 -36 5 -114 4 -123 -1z"/>
<path d="M2247 3622 c-19 -4 -23 -20 -19 -86 l4 -52 56 2 c31 1 62 3 67 3 13
1 14 115 2 128 -8 8 -77 11 -110 5z"/>
<path d="M2414 3621 c-9 -9 -4 -131 6 -132 6 -1 33 -1 60 -1 28 0 53 0 58 1 9
1 12 131 3 132 -23 4 -123 4 -127 0z"/>
<path d="M2593 3614 c-2 -6 -3 -38 -1 -70 l3 -58 53 1 c28 0 58 1 66 2 10 1
13 18 12 68 l-1 67 -64 1 c-38 0 -65 -5 -68 -11z"/>
<path d="M2790 3556 l0 -71 65 0 c36 0 65 4 66 10 6 63 4 117 -5 123 -6 4 -37
7 -68 7 l-58 1 0 -70z"/>
<path d="M2982 3622 c-8 -2 -12 -28 -12 -70 l0 -67 68 1 67 1 2 49 c3 86 1 89
-60 90 -29 0 -59 -2 -65 -4z"/>
<path d="M3179 3619 c-13 -8 -19 -102 -7 -121 6 -11 127 -19 129 -8 4 26 3
123 -1 128 -7 10 -106 11 -121 1z"/>
<path d="M3360 3620 c-7 -4 -10 -31 -8 -71 l3 -63 53 1 c28 0 58 1 65 2 10 1
14 18 13 68 l-2 67 -56 1 c-31 1 -62 -1 -68 -5z"/>
<path d="M3552 3620 c-11 -8 -8 -130 3 -131 42 -5 103 -3 115 2 12 5 15 22 14
63 0 31 -4 59 -7 62 -8 8 -115 11 -125 4z"/>
<path d="M3729 3600 c0 -14 -2 -44 -2 -68 -1 -23 3 -42 8 -43 55 -5 125 -2
126 6 5 35 4 116 0 123 -4 4 -34 7 -68 7 -60 0 -63 -1 -64 -25z"/>
<path d="M3932 3615 c-11 -17 -9 -125 3 -126 37 -4 102 -4 113 -1 8 3 12 26
12 71 l0 66 -61 0 c-33 0 -64 -4 -67 -10z"/>
<path d="M5350 3538 l0 -68 64 0 c42 0 65 4 68 13 4 10 3 94 -1 120 0 4 -30 7
-66 6 l-65 -2 0 -69z"/>
<path d="M4638 3543 c-2 -5 -4 -35 -3 -68 l1 -60 67 -3 c74 -3 69 -9 69 73 0
68 3 65 -66 65 -36 0 -66 -3 -68 -7z"/>
<path d="M4380 3389 l0 -70 67 3 68 3 0 62 c1 71 1 71 -82 71 l-53 0 0 -69z"/>
<path d="M1656 3421 c-2 -3 -4 -34 -4 -68 l0 -63 69 0 69 0 0 68 0 69 -65 0
c-36 0 -67 -2 -69 -6z"/>
<path d="M1850 3357 l0 -68 68 3 67 3 1 55 c1 30 -1 60 -3 66 -2 6 -30 11 -68
10 l-65 0 0 -69z"/>
<path d="M2035 3421 c-3 -2 -5 -33 -5 -68 l0 -64 68 3 67 3 2 67 3 66 -66 -1
c-35 -1 -67 -3 -69 -6z"/>
<path d="M2230 3358 l0 -68 68 0 68 0 -2 63 c-1 34 -2 65 -3 68 0 4 -30 6 -66
6 l-65 0 0 -69z"/>
<path d="M2410 3358 l0 -68 69 0 68 0 -1 68 -1 67 -68 1 -67 0 0 -68z"/>
<path d="M2595 3422 c-3 -3 -5 -34 -5 -69 l0 -63 70 0 71 0 -3 68 -3 67 -63 1
c-34 0 -64 -2 -67 -4z"/>
<path d="M2790 3359 l0 -69 64 0 c72 0 72 0 72 80 l-1 55 -67 1 -68 2 0 -69z"/>
<path d="M2970 3358 l0 -68 68 0 69 0 0 68 -1 69 -68 0 -68 -1 0 -68z"/>
<path d="M3167 3416 c-2 -9 -2 -71 2 -113 1 -9 22 -13 69 -13 l68 0 0 65 c-1
36 -5 66 -11 67 -39 6 -125 2 -128 -6z"/>
<path d="M3350 3358 l0 -68 68 0 68 0 0 68 0 68 -68 0 -68 0 0 -68z"/>
<path d="M3547 3421 c-1 -3 -2 -33 -2 -66 l0 -60 64 -3 c35 -2 67 1 70 7 3 5
6 35 5 68 l0 58 -67 1 c-37 1 -69 -1 -70 -5z"/>
<path d="M3729 3403 c-5 -118 -7 -114 68 -111 l67 3 1 63 c0 35 -4 63 -10 64
-5 1 -36 2 -67 3 -54 1 -58 -1 -59 -22z"/>
<path d="M3970 3358 l0 -69 68 3 67 3 1 66 1 66 -69 0 -68 -1 0 -68z"/>
<path d="M4835 3325 c-2 -5 -3 -35 -3 -67 l1 -56 37 -4 c21 -2 48 -1 61 2 22
5 24 11 24 63 1 32 -2 61 -5 65 -8 12 -112 9 -115 -3z"/>
<path d="M4169 3265 c-5 -52 -2 -110 7 -119 6 -6 36 -10 70 -8 l60 4 -2 59 c0
33 -4 63 -8 67 -12 11 -126 9 -127 -3z"/>
<path d="M5202 3266 c-4 -6 -7 -36 -7 -66 l0 -55 62 -3 62 -3 -1 66 c-1 36 -4
65 -7 66 -41 6 -103 3 -109 -5z"/>
<path d="M1659 3245 c-1 0 -3 -30 -4 -67 -3 -66 -2 -67 24 -70 14 -2 45 -1 69
1 l43 3 -3 66 -3 66 -62 1 c-35 0 -64 0 -64 0z"/>
<path d="M1850 3178 l0 -68 68 0 69 0 -1 67 -1 68 -67 0 -68 1 0 -68z"/>
<path d="M2035 3241 c-3 -2 -5 -32 -5 -67 l0 -62 38 -4 c21 -1 51 -1 67 2 30
5 30 6 30 70 l0 64 -63 1 c-35 0 -65 -1 -67 -4z"/>
<path d="M2228 3195 c-2 -29 -2 -59 0 -68 4 -17 41 -24 97 -17 l40 5 0 63 c0
34 -2 62 -5 63 -3 1 -33 2 -67 3 l-61 3 -4 -52z"/>
<path d="M2414 3241 c-2 -2 -4 -33 -4 -68 l0 -63 69 0 69 0 -2 67 -1 67 -63 1
c-35 0 -65 -1 -68 -4z"/>
<path d="M2595 3241 c-3 -2 -5 -32 -5 -67 l0 -62 38 -3 c20 -2 51 -3 69 -1
l31 3 1 65 c0 35 -3 65 -7 65 -24 4 -124 4 -127 0z"/>
<path d="M2792 3238 c-4 -4 -5 -34 -4 -67 l4 -61 67 0 67 0 -1 67 0 68 -63 0
c-34 0 -66 -3 -70 -7z"/>
<path d="M2975 3241 c-3 -2 -5 -32 -5 -67 l0 -62 50 -4 c83 -5 87 -2 86 71
l-1 65 -63 1 c-34 1 -65 -1 -67 -4z"/>
<path d="M3169 3230 c-8 -101 -1 -124 34 -123 15 1 44 1 65 2 l37 1 -1 60 c-1
33 -2 63 -3 68 0 4 -30 7 -66 7 -51 0 -65 -3 -66 -15z"/>
<path d="M3354 3241 c-2 -2 -4 -32 -4 -67 0 -60 1 -62 28 -65 15 -2 45 -2 67
1 l40 5 0 65 0 65 -63 0 c-35 0 -65 -1 -68 -4z"/>
<path d="M3551 3235 c-6 -8 -8 -90 -2 -122 0 -5 31 -7 69 -5 l67 3 -1 60 c-1
33 -5 63 -8 67 -11 11 -116 9 -125 -3z"/>
<path d="M3972 3025 l3 -70 55 2 c30 1 60 2 65 2 15 1 17 131 2 132 -7 0 -38
2 -70 2 l-58 2 3 -70z"/>
<path d="M4673 3092 c-21 -3 -23 -9 -23 -68 0 -44 4 -64 13 -65 54 -4 110 -3
118 2 6 3 9 34 7 69 l-3 64 -45 1 c-25 0 -55 -1 -67 -3z"/>
<path d="M4402 3056 c-4 -6 -7 -37 -8 -68 -1 -46 2 -58 15 -59 19 -1 94 -1
101 0 7 1 7 118 0 124 -11 11 -101 13 -108 3z"/>
<path d="M1659 3047 c-1 -1 -3 -32 -4 -68 l-3 -67 67 2 66 1 3 67 3 67 -66 0
c-36 -1 -66 -1 -66 -2z"/>
<path d="M1850 2979 l0 -70 67 3 68 3 0 65 0 65 -67 2 -68 1 0 -69z"/>
<path d="M2030 2978 l0 -68 70 0 71 0 -2 70 -2 69 -68 -1 -69 -1 0 -69z"/>
<path d="M2790 2980 l0 -70 64 0 c72 0 72 0 72 80 l-1 55 -67 2 -68 3 0 -70z"/>
<path d="M2970 2979 l0 -70 68 3 67 3 0 65 0 65 -67 2 -68 1 0 -69z"/>
<path d="M3169 3037 c-1 -17 -1 -88 0 -109 1 -15 11 -18 65 -18 42 0 65 4 68
13 4 10 4 52 -1 114 -1 8 -23 12 -66 12 -43 0 -65 -4 -66 -12z"/>
<path d="M3350 2980 l0 -70 64 0 c72 0 72 0 71 80 l0 55 -67 2 -68 2 0 -69z"/>
<path d="M3548 3037 c-2 -7 -4 -37 -4 -67 l1 -55 63 -3 c57 -3 63 -1 70 20 7
18 8 75 3 109 -2 12 -129 8 -133 -4z"/>
<path d="M3729 3045 c0 -3 0 -25 0 -50 0 -94 -7 -86 69 -83 l67 3 0 65 0 65
-68 2 c-37 2 -67 0 -68 -2z"/>
<path d="M4181 2888 l0 -68 69 0 69 0 0 68 0 69 -69 0 -69 0 0 -69z"/>
<path d="M1659 2861 c-1 -3 -3 -34 -5 -68 l-3 -63 70 0 70 0 -3 68 -3 67 -62
1 c-35 1 -64 -1 -64 -5z"/>
<path d="M1855 2862 c-3 -3 -5 -34 -5 -69 l0 -63 68 0 68 0 -2 58 c0 31 -2 62
-2 69 -2 11 -116 16 -127 5z"/>
<path d="M2975 2862 c-3 -3 -5 -34 -5 -69 l0 -64 68 3 67 3 0 65 0 65 -62 1
c-34 1 -65 -1 -68 -4z"/>
<path d="M3169 2850 c0 -8 -1 -39 -2 -68 l-2 -53 70 3 70 3 0 65 0 65 -68 0
c-53 0 -67 -3 -68 -15z"/>
<path d="M3350 2799 l0 -69 68 0 68 0 -1 67 0 68 -67 1 -68 2 0 -69z"/>
<path d="M3547 2856 c-2 -6 -3 -36 -2 -66 l1 -55 70 -3 69 -3 -1 68 0 68 -67
1 c-38 0 -68 -4 -70 -10z"/>
<path d="M3733 2854 c-4 -12 -6 -57 -4 -101 1 -21 6 -23 65 -23 72 0 73 0 71
80 l-1 55 -63 1 c-42 0 -65 -4 -68 -12z"/>
<path d="M3929 2860 c-1 -3 -2 -33 -4 -67 l-2 -63 68 0 67 0 4 54 c5 84 6 83
-67 82 -36 0 -66 -3 -66 -6z"/>
<path d="M4642 2762 c-22 -3 -23 -7 -20 -70 l3 -66 53 -2 c59 -3 64 2 64 63 1
69 0 71 -39 74 -21 2 -48 3 -61 1z"/>
<path d="M4289 2678 c-2 -13 -2 -43 1 -68 l5 -45 62 -2 c39 -1 63 3 65 10 2 7
4 37 4 67 l-1 55 -66 3 c-63 3 -67 2 -70 -20z"/>
<path d="M5016 2638 c1 -35 2 -66 3 -70 0 -3 30 -6 65 -5 l64 1 4 45 c6 90 5
91 -70 91 l-67 0 1 -62z"/>
<path d="M1470 2601 l0 -68 68 1 67 1 1 68 2 67 -69 0 -69 0 0 -69z"/>
<path d="M1654 2603 l1 -68 68 -1 67 -1 0 69 0 68 -69 0 -68 0 1 -67z"/>
<path d="M1850 2600 l0 -70 68 3 67 2 1 68 0 67 -68 0 -68 0 0 -70z"/>
<path d="M2971 2663 c0 -4 17 -35 38 -68 28 -45 44 -61 63 -63 31 -4 37 11 35
83 l-2 50 -67 3 c-38 2 -68 -1 -67 -5z"/>
<path d="M3168 2663 c-3 -7 -2 -88 1 -119 1 -6 28 -10 68 -10 l68 1 0 65 0 65
-67 3 c-36 2 -68 -1 -70 -5z"/>
<path d="M3350 2602 l0 -69 68 1 67 1 1 55 c2 79 1 80 -72 80 l-64 0 0 -68z"/>
<path d="M3549 2668 c-1 -2 -2 -33 -3 -69 l-1 -67 70 2 69 1 -1 60 c-1 33 -2
63 -2 68 -1 6 -129 11 -132 5z"/>
<path d="M3729 2640 c-4 -114 -8 -109 68 -107 l67 2 1 55 c2 80 1 80 -71 80
l-64 0 -1 -30z"/>
<path d="M3970 2600 l0 -70 68 4 c37 2 68 5 68 5 1 1 1 30 1 66 l0 65 -69 0
-68 0 0 -70z"/>
<path d="M1470 2418 l0 -69 68 3 67 3 1 67 1 66 -68 -1 -69 -1 0 -68z"/>
<path d="M1659 2487 c-1 -1 -3 -32 -4 -69 l-3 -68 69 0 69 0 0 68 0 68 -65 2
c-36 1 -66 1 -66 -1z"/>
<path d="M3070 2471 c0 -24 48 -119 50 -98 2 18 2 78 1 101 -1 20 -51 18 -51
-3z"/>
<path d="M3169 2482 c0 -4 -1 -34 -2 -67 l-2 -60 70 0 69 0 1 55 c1 30 0 60
-2 66 -5 13 -132 19 -134 6z"/>
<path d="M3350 2419 l0 -70 68 3 67 3 0 65 -1 65 -67 2 -67 3 0 -71z"/>
<path d="M3547 2476 c-3 -10 -2 -87 2 -116 2 -15 131 -13 132 3 6 86 3 118
-11 122 -28 8 -119 1 -123 -9z"/>
<path d="M3735 2484 c-8 -3 -11 -76 -6 -127 1 -4 31 -7 69 -5 l67 3 0 65 0 65
-60 1 c-33 1 -64 0 -70 -2z"/>
<path d="M4659 2439 c-6 -3 -9 -34 -7 -70 l3 -64 55 -1 c80 0 80 0 80 72 0 59
-2 64 -22 65 -13 0 -40 2 -61 3 -21 1 -42 -1 -48 -5z"/>
<path d="M4047 2422 c-2 -6 -1 -88 2 -119 1 -9 21 -13 66 -13 72 0 66 -8 67
88 l1 47 -66 2 c-37 1 -68 -2 -70 -5z"/>
<path d="M4328 2379 c-13 -8 -12 -120 1 -128 5 -4 31 -6 58 -6 l48 0 0 69 0
69 -48 1 c-27 0 -53 -2 -59 -5z"/>
<path d="M1472 2223 l3 -68 55 0 c30 -1 60 1 66 3 6 2 11 30 12 67 l1 65 -70
0 -70 0 3 -67z"/>
<path d="M1653 2223 l2 -68 65 0 65 0 3 68 3 67 -70 0 -70 0 2 -67z"/>
<path d="M3155 2273 c4 -10 13 -40 20 -68 l12 -50 41 0 c23 -1 43 2 43 5 4 17
4 107 1 118 -3 8 -25 12 -64 12 -53 0 -59 -2 -53 -17z"/>
<path d="M3350 2221 l0 -69 65 1 c36 0 65 3 66 6 1 3 2 34 3 69 l3 62 -69 0
-68 0 0 -69z"/>
<path d="M3548 2278 c-2 -7 -4 -38 -4 -68 l1 -55 63 -1 c34 0 65 3 68 8 3 5 7
36 8 69 l2 59 -67 0 c-45 0 -68 -4 -71 -12z"/>
<path d="M3729 2265 c-1 -14 -1 -36 -1 -50 0 -63 -3 -61 67 -61 36 0 66 5 68
11 3 9 2 96 -2 118 0 4 -30 7 -66 7 -62 0 -65 -1 -66 -25z"/>
<path d="M4060 2102 l0 -69 69 0 68 0 0 69 0 68 -69 0 -68 0 0 -68z"/>
<path d="M1471 2040 l2 -70 66 2 66 3 2 68 2 67 -70 0 -70 0 2 -70z"/>
<path d="M1655 2098 c-2 -7 -3 -38 -2 -68 l2 -55 68 -2 67 -3 0 70 0 70 -65 0
c-44 0 -67 -4 -70 -12z"/>
<path d="M3220 2098 c1 -7 7 -38 14 -68 12 -51 15 -55 42 -55 l29 0 -1 65 0
65 -42 3 c-30 2 -42 -1 -42 -10z"/>
<path d="M3350 2042 l0 -68 64 -2 c73 -2 72 -2 72 78 l-1 55 -67 3 -68 3 0
-69z"/>
<path d="M3548 2098 c-2 -7 -4 -38 -4 -68 l1 -55 68 -3 c74 -2 69 -7 69 73 0
25 -1 50 -1 55 -1 15 -128 13 -133 -2z"/>
<path d="M3777 2103 c-2 -5 -4 -35 -3 -68 l1 -60 65 0 65 0 3 68 3 67 -65 0
c-36 0 -67 -3 -69 -7z"/>
<path d="M4324 2062 c-19 -3 -21 -10 -21 -67 -1 -42 3 -65 11 -66 6 0 36 -1
66 -1 l55 -1 3 66 c2 49 -1 67 -10 68 -34 3 -85 4 -104 1z"/>
<path d="M4549 2041 c-7 -40 -4 -111 5 -112 61 -4 109 -3 117 2 9 5 13 46 10
97 -1 21 -5 22 -66 21 -36 -1 -65 -4 -66 -8z"/>
<path d="M3997 1972 c-28 -3 -28 -4 -25 -70 l3 -67 63 0 c34 0 63 2 63 5 1 3
3 33 4 68 3 52 1 62 -13 63 -9 0 -28 1 -42 2 -14 1 -38 1 -53 -1z"/>
<path d="M1274 1861 l1 -66 68 -3 67 -3 0 69 0 69 -68 0 -68 0 0 -66z"/>
<path d="M1470 1858 l0 -69 68 3 67 3 3 62 c3 71 1 73 -85 71 l-53 -1 0 -69z"/>
<path d="M3253 1893 c10 -71 19 -103 32 -103 16 0 21 22 20 85 -1 47 -2 50
-29 53 -27 3 -28 2 -23 -35z"/>
<path d="M3350 1859 l0 -69 69 0 69 0 -2 68 -2 67 -67 2 -67 1 0 -69z"/>
<path d="M3547 1921 c-3 -5 -1 -103 2 -123 1 -5 30 -8 66 -8 51 0 65 3 66 15
0 8 1 35 1 60 0 25 -1 49 -1 53 -1 10 -130 13 -134 3z"/>
<path d="M3729 1914 c0 -8 -1 -34 -1 -59 0 -25 1 -49 1 -55 1 -15 128 -13 133
3 4 10 3 66 -1 113 -2 18 -131 16 -132 -2z"/>
<path d="M4209 1819 c-14 -9 -18 -118 -5 -127 6 -4 37 -7 69 -7 54 -1 57 0 58
24 4 89 3 104 -6 107 -19 8 -106 10 -116 3z"/>
<path d="M1275 1668 c2 -35 3 -65 4 -69 0 -3 30 -5 66 -5 l65 0 0 68 0 68 -68
0 -69 0 2 -62z"/>
<path d="M1472 1663 l3 -68 65 0 65 0 1 68 1 67 -69 0 -69 0 3 -67z"/>
<path d="M3296 1708 c2 -13 7 -39 10 -58 9 -47 23 -73 25 -45 8 107 4 125 -21
125 -14 0 -18 -6 -14 -22z"/>
<path d="M3349 1698 c-2 -18 -2 -49 1 -68 l5 -36 65 1 65 0 0 65 0 65 -66 3
-67 3 -3 -33z"/>
<path d="M3548 1723 c-4 -7 -3 -91 1 -119 1 -13 130 -15 132 -2 1 4 1 31 1 58
0 28 0 55 -1 60 -1 11 -128 14 -133 3z"/>
<path d="M3773 1662 l0 -68 66 0 66 1 3 68 3 67 -69 0 -69 0 0 -68z"/>
<path d="M3970 1662 l0 -68 65 0 c73 -1 73 -1 73 84 l0 52 -69 0 -69 0 0 -68z"/>
<path d="M4363 1618 l1 -68 68 0 69 0 -3 68 -3 67 -66 0 -66 0 0 -67z"/>
<path d="M1279 1543 c-1 -5 -2 -36 -3 -70 l-1 -62 67 0 68 0 0 69 0 70 -65 0
c-36 0 -66 -3 -66 -7z"/>
<path d="M1470 1481 l0 -69 68 1 67 2 1 68 2 67 -69 0 -69 0 0 -69z"/>
<path d="M3350 1506 c0 -25 4 -56 9 -69 8 -22 15 -24 68 -23 l58 1 1 55 c2 79
1 80 -72 80 l-64 0 0 -44z"/>
<path d="M3548 1538 c-2 -7 -4 -38 -3 -68 l1 -55 67 -2 c37 -2 67 1 68 5 3 27
4 109 1 120 -3 8 -25 12 -67 12 -41 0 -64 -4 -67 -12z"/>
<path d="M3729 1535 c0 -8 -1 -31 -1 -50 0 -82 -5 -76 69 -73 l68 3 0 65 0 65
-68 3 c-55 2 -67 0 -68 -13z"/>
<path d="M4018 1543 c-2 -5 -4 -35 -3 -68 l0 -60 68 -2 67 -2 0 69 0 70 -64 0
c-36 0 -66 -3 -68 -7z"/>
<path d="M4244 1439 c-17 -6 -19 -16 -18 -63 2 -30 5 -59 7 -63 3 -5 29 -8 59
-8 l53 1 3 67 c3 64 2 67 -20 68 -13 0 -33 2 -44 3 -12 1 -30 -1 -40 -5z"/>
<path d="M1288 1352 c-11 -2 -14 -18 -14 -69 l1 -67 57 -1 c32 -1 62 2 68 5 7
4 10 33 8 70 l-3 62 -51 2 c-28 0 -58 0 -66 -2z"/>
<path d="M1492 1352 c-22 -3 -23 -7 -20 -70 l3 -67 67 0 67 -1 -1 68 c-1 66
-2 68 -27 69 -14 0 -35 2 -46 3 -11 1 -30 0 -43 -2z"/>
<path d="M3397 1352 c-32 -3 -36 -6 -32 -25 2 -12 7 -39 10 -61 3 -21 7 -42
10 -46 6 -10 82 -7 92 3 9 9 12 127 4 128 -24 3 -51 4 -84 1z"/>
<path d="M3562 1349 c-14 -5 -17 -20 -17 -70 l0 -64 68 0 c37 0 67 2 68 5 4
22 3 123 -1 128 -6 9 -96 9 -118 1z"/>
<path d="M3760 1352 c-34 -3 -35 -4 -33 -45 1 -23 2 -54 2 -68 1 -25 3 -25 68
-24 l68 1 0 63 c0 34 -3 65 -6 67 -11 6 -60 9 -99 6z"/>
<path d="M4002 1352 l-33 -3 3 -67 3 -67 65 0 65 0 1 68 c1 55 -2 67 -15 68
-9 0 -25 1 -36 2 -11 1 -35 1 -53 -1z"/>
<path d="M4150 1165 c0 -36 3 -65 8 -66 57 -8 102 -5 102 7 0 8 1 15 1 17 1 1
5 26 9 55 l6 52 -63 0 -63 0 0 -65z"/>
<path d="M1277 1163 c-2 -5 -4 -35 -3 -68 l1 -60 68 -1 67 -2 0 69 0 69 -64 0
c-36 0 -67 -3 -69 -7z"/>
<path d="M3384 1128 c4 -24 8 -54 9 -68 2 -21 8 -24 40 -26 l37 -2 0 69 0 69
-46 0 -47 0 7 -42z"/>
<path d="M3548 1158 c-2 -7 -4 -38 -4 -68 l1 -55 70 0 69 0 -1 53 c0 28 -1 59
-2 67 -1 20 -127 22 -133 3z"/>
<path d="M3729 1155 c-1 -8 -1 -22 -1 -30 0 -8 0 -33 1 -54 l1 -40 53 1 c83 0
83 0 82 71 l-1 62 -67 3 c-55 2 -67 0 -68 -13z"/>
<path d="M3926 1108 c1 -35 2 -66 3 -69 0 -3 30 -6 66 -5 l65 0 0 68 0 68 -68
0 -68 0 2 -62z"/>
<path d="M4108 983 c-2 -5 -3 -35 -3 -68 l0 -60 39 0 c27 0 40 5 42 15 1 8 7
35 13 60 6 25 11 48 11 53 0 4 -22 7 -49 7 -28 0 -51 -3 -53 -7z"/>
<path d="M1293 970 c-15 -4 -19 -16 -19 -67 -1 -35 1 -63 5 -64 3 0 34 -2 69
-3 l62 -1 0 70 0 70 -49 0 c-27 0 -58 -2 -68 -5z"/>
<path d="M3414 968 c-4 -5 2 -72 9 -112 3 -14 27 -24 47 -19 13 3 16 18 16 70
l-1 66 -33 1 c-19 1 -36 -2 -38 -6z"/>
<path d="M3564 972 c-18 -3 -20 -9 -19 -62 1 -33 5 -63 9 -67 11 -11 126 -9
127 2 4 51 3 109 -3 118 -6 10 -69 15 -114 9z"/>
<path d="M3729 960 c-4 -78 -3 -113 6 -118 12 -7 125 -9 126 -2 6 22 4 113 -2
122 -5 7 -32 12 -68 13 -47 0 -61 -3 -62 -15z"/>
<path d="M3929 965 c-8 -51 -3 -125 8 -126 7 -1 37 -2 66 -2 l52 -1 0 69 0 70
-62 0 c-35 0 -64 -4 -64 -10z"/>
<path d="M1315 790 l-41 -5 1 -65 0 -64 65 -1 65 0 3 66 c3 66 3 67 -25 70
-15 2 -46 2 -68 -1z"/>
<path d="M3462 792 c-21 -3 -22 -7 -16 -55 3 -29 6 -57 7 -64 0 -14 25 -25 38
-17 11 6 12 131 2 136 -5 2 -18 2 -31 0z"/>
<path d="M3569 790 c-22 -6 -24 -10 -24 -70 l0 -65 68 0 c46 0 67 4 68 12 1 7
2 37 2 66 l1 52 -45 5 c-25 3 -56 3 -70 0z"/>
<path d="M3738 789 c-5 -3 -10 -28 -10 -55 0 -86 -4 -81 65 -80 34 1 65 6 68
11 5 8 5 91 0 117 -1 8 -110 15 -123 7z"/>
<path d="M3959 792 l-36 -3 2 -62 c2 -34 3 -65 4 -68 0 -3 29 -5 64 -5 l62 2
5 57 c3 32 3 62 0 66 -7 11 -56 17 -101 13z"/>
<path d="M4112 792 c-22 -3 -23 -7 -20 -69 3 -55 6 -67 21 -69 21 -3 41 36 50
98 6 39 -5 47 -51 40z"/>
<path d="M3464 562 c9 -64 15 -85 26 -96 12 -12 12 -10 11 63 0 57 -3 64 -27
67 -12 2 -14 -5 -10 -34z"/>
<path d="M3549 580 c-1 -8 -2 -39 -3 -67 -1 -50 0 -53 24 -54 56 -2 102 0 107
5 3 2 6 33 6 67 l1 62 -67 1 c-53 1 -67 -2 -68 -14z"/>
<path d="M3732 590 c-4 -3 -6 -21 -5 -40 0 -19 1 -48 2 -65 1 -30 1 -30 58
-28 32 1 63 2 68 2 8 1 13 99 6 131 -1 3 -28 5 -62 5 -33 0 -64 -2 -67 -5z"/>
<path d="M3931 590 c-9 -6 -9 -115 0 -125 8 -7 108 -12 111 -5 4 17 4 130 -1
131 -19 4 -103 4 -110 -1z"/>
<path d="M3540 412 c-14 -5 -12 -82 3 -112 11 -21 19 -24 67 -24 l55 0 2 67
c1 37 -2 67 -5 68 -22 3 -113 4 -122 1z"/>
<path d="M3733 407 c-3 -4 -5 -27 -5 -50 0 -88 -5 -82 65 -81 34 1 64 2 67 3
9 2 5 119 -4 128 -10 10 -117 10 -123 0z"/>
<path d="M3942 345 c3 -67 4 -70 28 -70 20 0 30 11 51 50 48 89 48 90 -22 90
l-60 0 3 -70z"/>
<path d="M3599 230 l-37 -5 25 -67 c23 -61 27 -66 51 -64 26 3 27 6 28 69 2
73 -2 77 -67 67z"/>
<path d="M3773 232 c-24 -2 -43 -6 -44 -10 -2 -10 -2 -62 0 -98 1 -30 1 -30
60 -30 33 1 63 4 67 8 4 5 8 35 8 67 2 56 0 60 -24 63 -14 2 -44 2 -67 0z"/>
<path d="M3910 174 c0 -31 4 -53 9 -49 9 5 61 92 61 101 0 2 -16 4 -35 4 l-35
0 0 -56z"/>
<path d="M3630 42 c0 -14 23 -32 41 -32 12 0 16 6 12 20 -3 13 -14 20 -29 20
-13 0 -24 -4 -24 -8z"/>
<path d="M3730 25 c0 -30 17 -32 66 -9 53 25 50 34 -10 34 -53 0 -56 -1 -56
-25z"/>
</g>
</svg>
