<?xml version="1.0" encoding="utf-8"?>
<!-- Generator: Adobe Illustrator 21.1.0, SVG Export Plug-In . SVG Version: 6.00 Build 0)  -->
<svg version="1.1" id="Layer_1" xmlns="http://www.w3.org/2000/svg" xmlns:xlink="http://www.w3.org/1999/xlink" x="0px" y="0px"
	 viewBox="0 0 98.5 98.3" style="enable-background:new 0 0 98.5 98.3;" xml:space="preserve">
<style type="text/css">
	.st0{fill:none;stroke:#0B72BA;stroke-width:2;stroke-miterlimit:10;}
	.st1{fill:none;stroke:#0B72BA;stroke-miterlimit:10;}
	.st2{fill:none;stroke:#0B72BA;stroke-width:2;stroke-linecap:round;stroke-linejoin:round;stroke-miterlimit:10;}
</style>
<g>
	<circle class="st0" cx="49.3" cy="49.2" r="47.5"/>
	<circle class="st1" cx="22.3" cy="58.9" r="4.2"/>
	<circle class="st1" cx="27.4" cy="45.5" r="4.2"/>
	<circle class="st1" cx="72.3" cy="46.5" r="4.2"/>
	<circle class="st1" cx="33.9" cy="35.2" r="3.6"/>
	<circle class="st1" cx="43.9" cy="29.3" r="3.6"/>
	<circle class="st1" cx="55.1" cy="29.3" r="3.6"/>
	<circle class="st1" cx="65.6" cy="35.2" r="3.6"/>
	<circle class="st1" cx="76.5" cy="58.9" r="4.2"/>
	<path class="st2" d="M86.4,58.2c-1-3.9-7.9-37.5-36.2-38.5c-0.1,0-1.1,0-1.4,0c-28.3,1-35.2,34.5-36.2,38.5c-1,4,1.1,10.1,8,11
		c8,1,10-4,11-8c2.5-21.8,14.5-24,17.9-24c3.7,0.1,15.4,2.2,17.9,24c1,4,3,9,11,8C85.4,68.3,87.4,62.2,86.4,58.2z"/>
</g>
</svg>
