<?xml version="1.0" encoding="utf-8"?>
<!-- Generator: Adobe Illustrator 21.1.0, SVG Export Plug-In . SVG Version: 6.00 Build 0)  -->
<svg version="1.1" id="Layer_1" xmlns="http://www.w3.org/2000/svg" xmlns:xlink="http://www.w3.org/1999/xlink" x="0px" y="0px"
	 viewBox="0 0 98.5 98.3" style="enable-background:new 0 0 98.5 98.3;" xml:space="preserve">
<style type="text/css">
	.st0{fill:none;stroke:#0B72BA;stroke-width:2;stroke-miterlimit:10;}
	.st1{fill:none;stroke:#0B72BA;stroke-width:1.5;stroke-linecap:round;stroke-linejoin:round;stroke-miterlimit:10;}
	.st2{fill:none;stroke:#0B72BA;stroke-width:2;stroke-linecap:round;stroke-linejoin:round;stroke-miterlimit:10;}
</style>
<circle class="st0" cx="49.2" cy="49.2" r="47.5"/>
<g>
	<g>
		<path class="st1" d="M48.6,61.2c0-5.1,0.9-14.9,6.9-14.9c6.8,0,7.6,10.8,7.7,15.4c0,1.6-1.1,2.9-2.7,3.1c-3,0.4-7.7,1-10.2,0.4
			c-0.9-0.2-1.6-1-1.6-1.9C48.7,62.7,48.6,62,48.6,61.2c0,0.9,0,1.5,0,2.1c0,0.9-0.7,1.7-1.6,1.9c-2.5,0.5-7.2-0.1-10.2-0.4
			c-1.6-0.2-2.7-1.5-2.7-3.1c0.1-4.7,0.8-15.4,7.7-15.4C47.8,46.2,48.6,56.1,48.6,61.2z"/>
		<path class="st1" d="M64.8,63.4c0,0-1.4-2.3-1.4-5.6c0-3.4,2-11.5,5.9-11.5c3.8,0,5.2,7,5.2,15.6C74.5,64.3,64.8,63.4,64.8,63.4z"
			/>
		<path class="st1" d="M32.4,63.4c0,0,1.4-2.3,1.4-5.6c0-3.4-2-11.5-5.9-11.5c-3.8,0-5.2,7-5.2,15.6C22.7,64.3,32.4,63.4,32.4,63.4z
			"/>
		<path class="st1" d="M73.5,51.5c0,0,3.7-7.2,7.7-7.2c4.1,0,2.6,14.8,0,17.5c-2.6,2.6-6.8-1.7-6.8-1.7"/>
		<path class="st1" d="M23.7,51.5c0,0-3.7-7.2-7.7-7.2c-4.1,0-2.6,14.8,0,17.5c2.6,2.6,6.8-1.7,6.8-1.7"/>
	</g>
	<path class="st2" d="M12.5,50c-2.9-2.4-2.5-6.8-2.6-9.6c0-0.6,0.2-1.2,0.7-1.6c0.5-0.4,1.1-0.6,1.6-0.5c6.8,1.1,25.6,2.2,36.4,2.2
		c10.8,0,29.7-1.1,36.4-2.2c0.6-0.1,1.2,0.1,1.6,0.5c0.5,0.4,0.7,1,0.7,1.6c-0.1,2.8,0.3,7.2-2.6,9.6"/>
	<path class="st1" d="M65.8,40l0-0.9c-0.1-1.7-1.5-2.9-3.1-2.9l-4.3,0.2c-1.6,0.1-2.9,1.5-2.9,3.1l0,0.9"/>
	<path class="st1" d="M31.4,40l0-0.9c0.1-1.7,1.5-2.9,3.1-2.9l4.3,0.2c1.6,0.1,2.9,1.5,2.9,3.1l0,0.9"/>
	<path class="st1" d="M84.5,38.4l0-0.8c-0.1-1.6-1.4-2.9-3.1-2.8l-2.8,0.1c-1.6,0.1-2.8,1.4-2.7,3l0.1,1.4"/>
	<path class="st1" d="M12.8,38.4l0-0.8c0.1-1.6,1.4-2.9,3.1-2.8l2.8,0.1c1.6,0.1,2.8,1.4,2.7,3l-0.1,1.4"/>
</g>
</svg>
