<?xml version="1.0" encoding="utf-8"?>
<!-- Generator: Adobe Illustrator 21.1.0, SVG Export Plug-In . SVG Version: 6.00 Build 0)  -->
<svg version="1.1" id="Layer_1" xmlns="http://www.w3.org/2000/svg" xmlns:xlink="http://www.w3.org/1999/xlink" x="0px" y="0px"
	 viewBox="0 0 98.5 98.3" style="enable-background:new 0 0 98.5 98.3;" xml:space="preserve">
<style type="text/css">
	.st0{fill:none;stroke:#0B72BA;stroke-width:2;stroke-miterlimit:10;}
	.st1{fill:#75C5E7;}
	.st2{fill:#0B72BA;}
</style>
<circle class="st0" cx="49.2" cy="49.2" r="47.5"/>
<g>
	<g>
		<path class="st1" d="M37.9,73.1c0-0.1-3.2-10.1-4.6-21c-2-14.8,0.1-24.1,6.1-27.5l0.8,1.4c-6.7,3.8-6.6,16.2-5.3,25.9
			c1.4,10.7,4.5,20.6,4.6,20.7L37.9,73.1z"/>
	</g>
	<g>
		<path class="st1" d="M59.1,69.9l-1.5-0.6c4-9.1,8.3-22.4,6.3-34.2c-0.6-3.6-1.7-6.2-2.5-7.7c-0.9-1.6-1.6-2.4-1.6-2.4l1.2-1.1
			c0.1,0.1,3.2,3.4,4.5,10.8c0.8,4.3,0.8,9.1,0,14.3C64.5,55.3,62.4,62.4,59.1,69.9z"/>
	</g>
	<g>
		<path class="st1" d="M49.7,53l-1.6-0.1c0.9-18.3-0.8-22.6-0.8-22.7l1.5-0.6C48.9,29.8,50.6,34.1,49.7,53z"/>
	</g>
	<g>
		<path class="st1" d="M49.2,40.2c-20.4,0-27.5-3.1-27.8-3.3l0.7-1.5c0,0,1.8,0.8,6,1.6c3.9,0.7,10.7,1.6,21.1,1.6
			c20.1,0,26.9-3.1,27-3.1l0.7,1.4C76.6,37.1,69.6,40.2,49.2,40.2z"/>
	</g>
	<g>
		<path class="st1" d="M47,51.3c-4.1,0-7.7-0.2-10.7-0.4c-9.3-0.7-14.5-2.1-14.7-2.2l0.4-1.5c0.1,0,5.3,1.4,14.5,2.1
			c8.5,0.6,22.1,0.8,39.1-2.1l0.3,1.6C64.6,50.7,54.8,51.3,47,51.3z"/>
	</g>
	<g>
		<path class="st1" d="M37.9,62.1c-6.8,0-11.8-1.6-12-1.7l0.5-1.5c0.1,0,7.2,2.3,15.7,1.4l0.2,1.6C40.8,62,39.3,62.1,37.9,62.1z"/>
	</g>
	<g>
		<path class="st1" d="M58.5,62.1c-1.7,0-2.7-0.1-2.9-0.1l0.1-1.6c0.1,0,8.5,0.6,16.2-1.6l0.4,1.5C67.2,61.9,61.8,62.1,58.5,62.1z"
			/>
	</g>
	<g>
		<g>
			<path class="st2" d="M73.5,27.9c-3-3.4-7.1-5.2-11.6-5.2c-3.5,0-7.3,2.1-10.1,3.6c-1,0.6-2.4,1.3-2.8,1.4c-0.4,0-1.8-0.8-2.8-1.4
				c-2.8-1.5-6.5-3.6-10.1-3.6c-4.5,0-8.6,1.8-11.6,5.2c-2.9,3.2-4.4,7.4-4.4,11.8c0,6.3,2.3,15.4,6.1,24.1c1.7,3.9,3.5,7.3,5.2,9.7
				c2,2.9,3.8,4.4,5.4,4.4c0.7,0,2-0.3,2.7-2.3c0.7-1.9,1.3-4.1,2-6.5c1.8-6.2,3.9-13.9,7.4-13.9h0.2c1.6,0,3,1.3,4.3,4.1
				c1.3,2.7,2.3,6.4,3.2,9.9c0.6,2.3,1.2,4.5,1.9,6.4c0.7,2,2,2.3,2.6,2.3c1.6,0,3.3-1.5,5.4-4.4c1.7-2.5,3.5-5.9,5.2-9.8
				c3.8-8.8,6.1-17.8,6.1-23.9C77.9,35.3,76.3,31.1,73.5,27.9 M60.8,32.4c0,0-3.7-0.2-7-1.1c-1.5-0.4-3.3-1.2-3.3-1.4
				c0-0.2,1.9-1.3,2.4-1.6c2.5-1.4,6-3.3,8.9-3.3c8.6,0,13.7,7.5,13.7,14.7c0,5.8-2.3,14.6-5.9,23c-1.6,3.7-3.4,7.1-5,9.4
				c-1.9,2.7-3.1,3.5-3.4,3.4c-0.2,0-0.3-0.2-0.4-0.7c-0.6-1.8-1.2-4-1.9-6.2c-1-3.6-2-7.3-3.4-10.3c-1.7-3.7-3.8-5.4-6.4-5.4h-0.2
				c-2.5,0-4.5,1.8-6.3,5.4c-1.4,2.9-2.4,6.6-3.5,10.2c-0.6,2.3-1.3,4.5-1.9,6.3c-0.1,0.4-0.2,0.7-0.5,0.7c-0.2,0-1.1,0-3.4-3.4
				c-1.6-2.3-3.4-5.6-5-9.3c-3.6-8.4-5.9-17.2-5.9-23.2c0-7.2,5.1-14.7,13.7-14.7c2.2,0,5.2,1,7.8,2.7c0.4,0.2,0.9,0.7,1.5,1.1
				c0.2,0.2,0.4,0.3,0.6,0.5c0.6,0.5,1.5,1.1,2.5,1.7c0.4,0.3,1,0.6,1.5,0.8c2.1,0.9,4.4,1.4,6.8,1.4c2.4,0,4-0.4,4-0.4
				c0,0,0.4-0.1,0.3-0.2C61.1,32.4,60.8,32.4,60.8,32.4L60.8,32.4z M60.8,32.4"/>
		</g>
	</g>
</g>
</svg>
