<?xml version="1.0" encoding="utf-8"?>
<!-- Generator: Adobe Illustrator 21.1.0, SVG Export Plug-In . SVG Version: 6.00 Build 0)  -->
<svg version="1.1" id="Layer_1" xmlns="http://www.w3.org/2000/svg" xmlns:xlink="http://www.w3.org/1999/xlink" x="0px" y="0px"
	 viewBox="0 0 98.5 98.3" style="enable-background:new 0 0 98.5 98.3;" xml:space="preserve">
<style type="text/css">
	.st0{fill:#0B72BA;}
	.st1{fill:#75C5E7;}
	.st2{fill:none;stroke:#0B72BA;stroke-width:2;stroke-miterlimit:10;}
</style>
<g id="ARC_71_">
	<g id="XMLID_2_">
		<g>
			
				<ellipse transform="matrix(0.7157 -0.6984 0.6984 0.7157 -30.5922 72.1269)" class="st0" cx="73.3" cy="73.6" rx="7.1" ry="7.1"/>
			<path class="st0" d="M75.4,55.4c1.4,3.1,1.3,6.7-0.1,9.8c-2.9-0.7-6,0.1-8.1,2.2c-2.5,2.5-3.3,6.3-2,9.6
				c-11.8,1.9-23-6-25.2-17.8c-0.1-0.8,0.3-1.6,0.9-2c0.9-0.6,2.2-0.3,2.7,0.7c2.4,3.8,5.8,6.9,9.9,8.7c3.8-0.5,7-3.1,8.1-6.7
				c4.7-1.3,8.9-3.9,12.1-7.7c-2.1,4.5-6,7.9-10.8,9.2c-1.7,3.9-5.4,6.6-9.6,6.9c-4.5-1.8-8.2-5.1-10.7-9.2c-0.2-0.2-0.6-0.2-0.9,0
				c-0.2,0.2-0.2,0.4-0.2,0.6C44.1,69.4,53.1,76,63,75.5c-0.6-3.4,0.5-6.9,3-9.3c2.2-2.1,5.2-3.2,8.2-2.9c0.6-2,0.6-4.2-0.1-6.2
				C74.6,56.5,75.1,56,75.4,55.4z"/>
			<path class="st1" d="M38.4,61.5c1.3,4.7,3.9,9,7.7,12.1c-4.5-2.1-7.9-6-9.2-10.9c-3.9-1.6-6.6-5.4-7-9.6
				c1.8-4.5,5.1-8.2,9.2-10.7c0.2-0.2,0.2-0.6,0-0.8c-0.2-0.2-0.4-0.2-0.6-0.2c-9.7,2.4-16.3,11.3-15.7,21.3c3.4-0.6,6.9,0.5,9.3,3
				c2.1,2.2,3.2,5.2,2.9,8.2c2,0.6,4.2,0.6,6.2-0.1c0.5,0.4,1,0.9,1.6,1.2c-3.1,1.4-6.7,1.3-9.8-0.1c0.7-2.9-0.1-6-2.2-8.2
				c-2.5-2.5-6.3-3.3-9.6-2c-1.9-11.8,6-23,17.8-25.2c0.8-0.1,1.6,0.3,2,0.9c0.6,0.9,0.3,2.2-0.7,2.7c-3.8,2.4-6.9,5.8-8.7,9.9
				C32.1,57.2,34.7,60.4,38.4,61.5z"/>
			<ellipse transform="matrix(0.7157 -0.6984 0.6984 0.7157 3.5945 58.6959)" class="st1" cx="73.9" cy="24.9" rx="7.1" ry="7.1"/>
			<ellipse transform="matrix(0.7157 -0.6984 0.6984 0.7157 -44.0214 37.9395)" class="st1" cx="24.6" cy="73" rx="7.1" ry="7.1"/>
			<path class="st0" d="M58.4,38.8c0.1,0.8-0.3,1.6-0.9,2c-0.9,0.6-2.2,0.3-2.7-0.7c-2.4-3.8-5.8-6.9-9.9-8.7
				c-3.8,0.5-6.9,3.1-8.1,6.7c-4.7,1.3-8.9,3.9-12.1,7.7c2.1-4.5,6-7.9,10.8-9.2c1.6-3.9,5.4-6.6,9.6-6.9c4.5,1.8,8.2,5.1,10.7,9.2
				c0.2,0.2,0.6,0.2,0.9,0c0.2-0.2,0.2-0.4,0.2-0.6C54.4,28.6,45.4,22,35.5,22.5c0.6,3.4-0.5,6.9-3,9.3c-2.2,2.1-5.2,3.2-8.2,2.9
				c-0.6,2-0.6,4.2,0.1,6.2c-0.4,0.5-0.9,1-1.2,1.6c-1.4-3.1-1.3-6.7,0.1-9.8c2.9,0.7,6-0.1,8.2-2.2c2.5-2.5,3.3-6.3,2-9.6
				C45.1,19.1,56.2,27,58.4,38.8z"/>
			<path class="st1" d="M65.4,22.9c-0.7,2.9,0.1,6,2.2,8.1c2.5,2.5,6.3,3.3,9.6,2c1.9,11.8-6,23-17.8,25.2c-0.8,0.1-1.6-0.3-2-0.9
				c-0.6-0.9-0.3-2.2,0.7-2.7c3.8-2.4,6.9-5.8,8.7-9.9c-0.5-3.8-3.1-7-6.7-8.1c-1.3-4.7-3.9-8.9-7.7-12.1c4.5,2.1,7.9,6,9.2,10.8
				c3.9,1.7,6.6,5.4,7,9.6c-1.8,4.5-5.1,8.2-9.2,10.7c-0.2,0.2-0.2,0.6,0,0.9c0.2,0.2,0.4,0.2,0.6,0.2c9.7-2.4,16.3-11.3,15.7-21.3
				c-3.4,0.6-6.9-0.5-9.3-3C64.3,30,63.2,27,63.5,24c-2-0.6-4.2-0.6-6.2,0.1c-0.5-0.5-1-0.9-1.6-1.2C58.8,21.4,62.3,21.5,65.4,22.9z
				"/>
			<ellipse transform="matrix(0.7157 -0.6984 0.6984 0.7157 -9.8348 24.5099)" class="st0" cx="25.2" cy="24.3" rx="7.1" ry="7.1"/>
		</g>
	</g>
</g>
<circle class="st2" cx="49.3" cy="49.2" r="47.5"/>
</svg>
