<?xml version="1.0" encoding="utf-8"?>
<!-- Generator: Adobe Illustrator 21.1.0, SVG Export Plug-In . SVG Version: 6.00 Build 0)  -->
<svg version="1.1" id="Layer_1" xmlns="http://www.w3.org/2000/svg" xmlns:xlink="http://www.w3.org/1999/xlink" x="0px" y="0px"
	 viewBox="0 0 98.5 98.3" style="enable-background:new 0 0 98.5 98.3;" xml:space="preserve">
<style type="text/css">
	.st0{fill:none;stroke:#0B72BA;stroke-width:2;stroke-miterlimit:10;}
	.st1{fill:#75C5E7;}
	.st2{fill:#0B72BA;}
</style>
<circle class="st0" cx="49.2" cy="49.2" r="47.5"/>
<g>
	<polygon class="st1" points="29,66.1 29.2,65.6 34.3,53.4 32,52.5 32.3,51.8 32.6,51.1 33.4,49.2 31.4,48.4 31.4,48.4 26.6,46.3 
		26.6,46.3 24.6,45.5 23.8,47.4 23.5,48.1 23.2,48.8 20.9,47.9 15.6,60.6 28,65.7 	"/>
	<circle class="st2" cx="59.3" cy="23.6" r="7"/>
	<rect x="8.6" y="51.9" transform="matrix(0.385 -0.9229 0.9229 0.385 -39.4595 46.8888)" class="st1" width="13.7" height="2.3"/>
	<polygon class="st1" points="30.7,66.9 32.9,67.8 33.9,65.3 38.2,55.1 36,54.2 31.3,65.5 	"/>
	<polygon class="st2" points="69.3,47 82.5,35.7 79.1,31.8 69.2,40.3 61.8,34.6 49.4,29.7 33.9,29.7 27.2,44.8 32.1,46.7 37.3,34.9 
		47.5,34.9 40.5,54.3 38.8,64.9 35.7,65.1 34.3,68.4 33.7,69.8 32.3,69.2 24.6,66 23.3,66.1 23.9,73 44.7,71.4 46.8,58.8 47.4,59.2 
		55.6,65.3 56.4,81.6 63.4,81.2 62.4,61.6 52.3,54.2 59.5,39.4 	"/>
</g>
</svg>
