<?xml version="1.0" encoding="utf-8"?>
<!-- Generator: Adobe Illustrator 21.1.0, SVG Export Plug-In . SVG Version: 6.00 Build 0)  -->
<svg version="1.1" id="Layer_1" xmlns="http://www.w3.org/2000/svg" xmlns:xlink="http://www.w3.org/1999/xlink" x="0px" y="0px"
	 viewBox="0 0 98.5 98.3" style="enable-background:new 0 0 98.5 98.3;" xml:space="preserve">
<style type="text/css">
	.st0{fill:none;stroke:#0B72BA;stroke-width:2;stroke-miterlimit:10;}
	.st1{fill:none;stroke:#0B72BA;stroke-width:1.5;stroke-linecap:round;stroke-linejoin:round;stroke-miterlimit:10;}
</style>
<circle class="st0" cx="49.2" cy="49.2" r="47.5"/>
<g>
	<path class="st1" d="M29.4,69.4c-2,8.5-1.1,14.7-1.1,14.7c0.2-5.2,0.9-10,2.1-14.3c-0.1,0-0.2,0.1-0.2,0.1S29.9,69.8,29.4,69.4z"/>
	<path class="st1" d="M83.4,28.6c-10.1-3.1-17.6-0.2-17.6-0.2c0.6-1.8,6.2-2.8,6.2-2.8c-12.6-0.8-18.8,5.9-18.8,5.9
		c0.5-2.2,7.1-5.2,7.1-5.2c-19,6.1-19.6,12.3-19.6,12.3c-0.6-3.2,7.5-9.1,7.5-9.1c-16.1,7.9-16.3,16.6-16.3,16.6
		c-0.8-4,4.1-11.8,4.1-11.8c-10.3,10.6-5.5,20.5-5.5,20.5c-3.2-2.5-1.8-12.1-1.8-12.1c-5.2,10.8,0.7,19.9,0.7,19.9
		c-3.6-0.6-5.4-6-5.4-6c0.6,8.4,3.8,11.6,5.3,12.7c2.9-12.5,12-29.6,39-38.4c0.6-0.2,1-0.3,1-0.3c-0.3,0.1-0.7,0.2-1,0.3
		c-5.3,1.8-30.5,11.8-38,38.8c1.2-0.4,8.3-3,10.6-8.3c0,0-0.8,1.1-1.7,1.4c0,0,2.4-5.7,10.1-8.3c0,0-2.4,0.2-4.6,0.9
		c0,0,3.7-6.4,11-8c0,0-3.9-0.1-4.7,0.7c0,0,2.8-4.2,9.2-5.4c0,0-4.4-0.3-6.4,1.2c0,0,4.7-4.8,11.4-5.2c0,0-2.8-0.4-4.3-0.1
		c0,0,6.1-3.7,11.7-3.9c0,0-3.5-0.3-4.5,0C68.1,34.7,74.8,33,83.4,28.6z"/>
</g>
</svg>
