<?xml version="1.0" encoding="utf-8"?>
<!-- Generator: Adobe Illustrator 21.1.0, SVG Export Plug-In . SVG Version: 6.00 Build 0)  -->
<svg version="1.1" id="Layer_1" xmlns="http://www.w3.org/2000/svg" xmlns:xlink="http://www.w3.org/1999/xlink" x="0px" y="0px"
	 viewBox="0 0 98.5 98.3" style="enable-background:new 0 0 98.5 98.3;" xml:space="preserve">
<style type="text/css">
	.st0{fill:none;stroke:#0B72BA;stroke-width:2;stroke-miterlimit:10;}
	.st1{fill-rule:evenodd;clip-rule:evenodd;fill:#0B72BA;}
</style>
<circle class="st0" cx="49.2" cy="49.2" r="47.5"/>
<g>
	<path class="st1" d="M48.7,75.7c15.2,0,27.6-12.4,27.6-27.6c0-15.2-12.4-27.6-27.6-27.6C35.3,20.6,24,30,21.6,43.1l-0.2,0.8h-4.5
		l5.8,7.7l5.8-7.7h-3.9l0.3-1.2c2.5-11.2,12.3-18.9,23.7-18.9C62.1,23.8,73,34.7,73,48.1c0,13.4-10.9,24.4-24.4,24.4
		c-8,0-15.4-3.9-19.9-10.4h-3.8C29.9,70.5,38.8,75.7,48.7,75.7z"/>
	<path class="st1" d="M46.4,31v19l13.5,8l1.3-2.2L49,48.5V31H46.4z M46.4,31"/>
</g>
</svg>
