<?xml version="1.0" encoding="utf-8"?>
<!-- Generator: Adobe Illustrator 21.1.0, SVG Export Plug-In . SVG Version: 6.00 Build 0)  -->
<svg version="1.1" id="Layer_1" xmlns="http://www.w3.org/2000/svg" xmlns:xlink="http://www.w3.org/1999/xlink" x="0px" y="0px"
	 viewBox="0 0 98.5 98.3" style="enable-background:new 0 0 98.5 98.3;" xml:space="preserve">
<style type="text/css">
	.st0{fill:none;stroke:#0B72BA;stroke-width:2;stroke-miterlimit:10;}
	.st1{fill:none;stroke:#0B72BA;stroke-miterlimit:10;}
	.st2{fill:#75C5E7;}
	.st3{fill:#0B72BA;}
</style>
<circle class="st0" cx="49.2" cy="49.2" r="47.5"/>
<g>
	<polygon class="st1" points="60.2,46.6 49.4,39.3 46.7,44.9 56.1,51.2 	"/>
	<path class="st2" d="M59,26.7c-10.2,1.2-9.2,11.9-9.2,11.9l10.8,7.3c0,0,4.5,0.9,10-6.4c8.4-11.2-4.1-23.8-4.1-23.8
		S67.2,25.8,59,26.7z M68,40.9c0,0-0.1-2-1.5-2.2c-1.4-0.3-3.6-0.8-4.3-1.8c-0.8-1-1.8-3.6-3.8-3.6c-2.1,0.1-5-2.5-5-2.5
		s1.7-2.8,6.3-2.9c6.4,0.2,7.7-8.7,7.7-8.7C77.1,30.1,68,40.9,68,40.9z"/>
	<path class="st2" d="M46.4,45.5c-0.3-0.2-0.8-0.1-1,0.2l-1.3,2c-0.2,0.3-0.1,0.8,0.2,1l9.3,6.2c0.3,0.2,0.8,0.1,1-0.2l1.3-2
		c0.2-0.3,0.1-0.8-0.2-1L46.4,45.5z"/>
	<path class="st3" d="M48.3,69.3c2.2-4.5,3.7-9.9,4.8-13.5l-9.6-6.4c-2.9,2.4-7.8,6.6-11.1,10.4c-7.5,8.7-8.4,18-3.8,21.6
		C33.4,84.9,42.3,81.6,48.3,69.3z M30.1,78.7c0.2-0.5,0.7-0.7,1.2-0.5c0.2,0.1,5.7,2.2,10.6-5.7c0.2-0.3,0.5-0.4,0.8-0.4
		c0.2,0,0.3,0,0.5,0.1c0.4,0.3,0.6,0.8,0.3,1.3c-2.9,4.8-6.2,6.3-8.5,6.7c-2.5,0.5-4.3-0.2-4.4-0.3C30.1,79.7,29.9,79.1,30.1,78.7z"
		/>
</g>
</svg>
