<?xml version="1.0" encoding="utf-8"?>
<!-- Generator: Adobe Illustrator 17.0.1, SVG Export Plug-In . SVG Version: 6.00 Build 0)  -->
<!DOCTYPE svg PUBLIC "-//W3C//DTD SVG 1.1//EN" "http://www.w3.org/Graphics/SVG/1.1/DTD/svg11.dtd">
<svg version="1.1" id="Слой_1" xmlns="http://www.w3.org/2000/svg" xmlns:xlink="http://www.w3.org/1999/xlink" x="0px" y="0px"
	 width="31.424px" height="31.425px" viewBox="0 0 31.424 31.425" enable-background="new 0 0 31.424 31.425" xml:space="preserve">
<path fill-rule="evenodd" clip-rule="evenodd" fill="#B2B2B2" d="M15.712,0C7.034,0,0,7.035,0,15.713
	c0,8.677,7.034,15.712,15.712,15.712s15.712-7.035,15.712-15.712C31.424,7.035,24.39,0,15.712,0 M20.081,12.292l-0.146,3.181
	l-2.977-0.031v10.829h-4.367V15.442l-2.239,0.062l-0.064-3.212h2.122c0-1.588-0.378-5.142,1.341-6.43
	c2.431-1.824,6.767-0.623,6.767-0.623l-0.545,3.324c0,0-1.501-0.28-1.781-0.28c-0.417,0-1.234,0.168-1.234,1.185v2.824H20.081z"/>
</svg>
