<?xml version="1.0" encoding="utf-8"?>
<!-- Generator: Adobe Illustrator 17.0.1, SVG Export Plug-In . SVG Version: 6.00 Build 0)  -->
<!DOCTYPE svg PUBLIC "-//W3C//DTD SVG 1.1//EN" "http://www.w3.org/Graphics/SVG/1.1/DTD/svg11.dtd">
<svg version="1.1" id="Layer_1" xmlns="http://www.w3.org/2000/svg" xmlns:xlink="http://www.w3.org/1999/xlink" x="0px" y="0px"
	 width="8.795px" height="10.276px" viewBox="476.139 274.569 8.795 10.276" enable-background="new 476.139 274.569 8.795 10.276"
	 xml:space="preserve">
<g>
	<g>
		<g>
			<g>
				<g>
					<path fill="#75C5E7" d="M482.661,281.098c-0.466,0.066-0.798,0.333-1.131,0.599c0,0-0.066,0.067-0.133,0.067
						c-0.2,0.066-0.665-0.2-1.663-1.53c-0.865-1.131-1.131-1.862-0.798-2.062c0.798-0.599,1.131-1.197,0.266-2.727
						c-0.399-0.665-0.798-0.931-1.33-0.865c-0.399,0.067-0.732,0.333-1.064,0.599c-0.066,0.067-0.133,0.133-0.2,0.133
						c-0.466,0.333-0.599,1.197-0.333,2.262c0.266,1.197,0.931,2.528,1.796,3.858c1.796,2.461,3.858,3.592,4.989,3.392l0,0
						c0.133,0,0.266-0.067,0.399-0.133c0.466-0.266,1.33-0.798,1.463-1.53c0.066-0.399-0.133-0.798-0.466-1.197
						C483.791,281.297,483.193,281.031,482.661,281.098L482.661,281.098z"/>
				</g>
			</g>
		</g>
	</g>
</g>
</svg>
