<?xml version="1.0" encoding="utf-8"?>
<!-- Generator: Adobe Illustrator 17.0.1, SVG Export Plug-In . SVG Version: 6.00 Build 0)  -->
<!DOCTYPE svg PUBLIC "-//W3C//DTD SVG 1.1//EN" "http://www.w3.org/Graphics/SVG/1.1/DTD/svg11.dtd">
<svg version="1.1" id="Layer_1" xmlns="http://www.w3.org/2000/svg" xmlns:xlink="http://www.w3.org/1999/xlink" x="0px" y="0px"
	 width="11.611px" height="11.697px" viewBox="474.043 274.579 11.611 11.697"
	 enable-background="new 474.043 274.579 11.611 11.697" xml:space="preserve">
<g>
	<g>
		<path fill="#FFFFFF" d="M484.257,282.627c1.862-1.862,1.862-4.856,0-6.652c-1.862-1.862-4.856-1.862-6.652,0
			c-1.53,1.53-1.796,3.858-0.732,5.72c0,0,0.066,0.133,0,0.266l-2.395,2.395c-0.466,0.466-0.599,1.131-0.2,1.596l0.066,0.067
			c0.399,0.399,1.064,0.333,1.596-0.2l2.395-2.395c0.133-0.133,0.266,0,0.266,0C480.333,284.423,482.661,284.157,484.257,282.627
			L484.257,282.627z M478.404,281.763c-1.33-1.33-1.33-3.592,0-4.922s3.592-1.33,4.922,0c1.33,1.33,1.33,3.592,0,4.922
			C481.995,283.093,479.8,283.093,478.404,281.763L478.404,281.763z"/>
	</g>
	<path fill="#FFFFFF" d="M478.736,278.969c-0.066,0-0.133,0-0.2-0.067c-0.266-0.133-0.333-0.399-0.266-0.665
		c0.665-1.53,2.461-2.262,3.991-1.596c0.266,0.133,0.333,0.399,0.266,0.665c-0.133,0.266-0.399,0.333-0.665,0.266
		c-1.064-0.466-2.262,0.067-2.727,1.131C479.069,278.902,478.936,278.969,478.736,278.969L478.736,278.969z"/>
</g>
</svg>
