<?xml version="1.0" encoding="utf-8"?>
<!-- Generator: Adobe Illustrator 17.0.1, SVG Export Plug-In . SVG Version: 6.00 Build 0)  -->
<!DOCTYPE svg PUBLIC "-//W3C//DTD SVG 1.1//EN" "http://www.w3.org/Graphics/SVG/1.1/DTD/svg11.dtd">
<svg version="1.1" id="Слой_1" xmlns="http://www.w3.org/2000/svg" xmlns:xlink="http://www.w3.org/1999/xlink" x="0px" y="0px"
	 width="31.219px" height="31.219px" viewBox="0 0 31.219 31.219" enable-background="new 0 0 31.219 31.219" xml:space="preserve">
<path fill="#B2B2B2" d="M14.851,12.338c1.321,0.453,2.759-0.251,3.212-1.571c0.453-1.322-0.25-2.759-1.571-3.212
	c-1.322-0.453-2.759,0.25-3.212,1.571C12.826,10.446,13.53,11.885,14.851,12.338"/>
<path fill="#B2B2B2" d="M15.609,0C6.988,0,0,6.988,0,15.609s6.988,15.61,15.609,15.61s15.61-6.989,15.61-15.61S24.23,0,15.609,0
	 M9.873,7.884c1.088-3.17,4.539-4.859,7.709-3.772c3.171,1.088,4.859,4.539,3.771,7.709c-1.086,3.171-4.538,4.858-7.709,3.772
	C10.476,14.506,8.786,11.054,9.873,7.884 M22.289,18.992c-0.011,0.007-0.028,0.019-0.051,0.033
	c-0.043,0.033-0.086,0.065-0.132,0.094c-0.718,0.455-1.463,0.826-2.231,1.115c-0.567,0.213-1.147,0.378-1.735,0.499l3.55,3.264
	c0.667,0.612,0.711,1.647,0.099,2.312c-0.175,0.191-0.385,0.33-0.611,0.418c-0.563,0.219-1.227,0.116-1.702-0.32l-3.643-3.35
	l-3.506,3.493c-0.447,0.445-1.091,0.572-1.651,0.379c-0.224-0.077-0.435-0.204-0.614-0.383c-0.624-0.626-0.622-1.64,0.004-2.266
	l3.484-3.47c-0.601-0.104-1.193-0.255-1.774-0.455c-0.775-0.265-1.532-0.615-2.262-1.049c-0.065-0.039-0.126-0.082-0.185-0.128
	c0-0.001-0.001-0.001-0.001-0.001v-0.001c-0.651-0.515-0.84-1.445-0.404-2.179c0.459-0.775,1.44-1.045,2.228-0.633l0.01-0.016
	l-0.007-0.004c0.123,0.077,2.112,1.308,4.782,1.26c2.515-0.117,4.326-1.312,4.442-1.391l-0.007,0.006l0.007,0.009
	c0.775-0.438,1.767-0.197,2.25,0.565c0.456,0.722,0.295,1.66-0.344,2.193L22.289,18.992z"/>
</svg>
