<?xml version="1.0" encoding="utf-8"?>
<!-- Generator: Adobe Illustrator 17.0.1, SVG Export Plug-In . SVG Version: 6.00 Build 0)  -->
<!DOCTYPE svg PUBLIC "-//W3C//DTD SVG 1.1//EN" "http://www.w3.org/Graphics/SVG/1.1/DTD/svg11.dtd">
<svg version="1.1" id="Слой_1" xmlns="http://www.w3.org/2000/svg" xmlns:xlink="http://www.w3.org/1999/xlink" x="0px" y="0px"
	 width="31.424px" height="31.424px" viewBox="0 0 31.424 31.424" enable-background="new 0 0 31.424 31.424" xml:space="preserve">
<path fill-rule="evenodd" clip-rule="evenodd" fill="#B2B2B2" d="M15.712,0C7.034,0,0,7.034,0,15.712s7.034,15.712,15.712,15.712
	s15.712-7.034,15.712-15.712S24.39,0,15.712,0 M22.342,17.959c0.154,0.208,0.322,0.408,0.492,0.6
	c0.795,0.889,1.624,1.737,2.249,2.806c0.131,0.217,0.248,0.452,0.335,0.697c0.162,0.459,0.007,0.873-0.397,1.043
	c-0.228,0.093-0.476,0.132-0.718,0.169c-0.18,0.027-0.366,0.007-0.548,0.01h-0.526v0.044c-0.492,0-0.987-0.003-1.479,0
	c-0.628,0.002-1.176-0.257-1.62-0.748c-0.489-0.548-0.937-1.149-1.41-1.719c-0.144-0.171-0.296-0.338-0.459-0.481
	c-0.378-0.333-0.756-0.265-0.936,0.242c-0.157,0.447-0.206,0.948-0.297,1.428c-0.01,0.051-0.003,0.107-0.003,0.163
	c-0.005,0.655-0.277,1.024-0.841,1.058c-1.48,0.096-2.912-0.097-4.248-0.923c-1.132-0.7-2.034-1.69-2.818-2.843
	c-1.306-1.927-2.325-4.054-3.257-6.239c-0.252-0.592-0.488-1.196-0.733-1.792l-0.046-0.125c-0.214-0.602-0.037-0.944,0.521-1.002
	c0.143-0.015,0.289-0.005,0.431-0.008c0.772-0.012,1.545-0.02,2.316-0.034c0.543-0.009,0.914,0.24,1.125,0.848
	c0.538,1.558,1.234,3.02,2.111,4.362c0.16,0.244,0.355,0.474,0.566,0.663c0.276,0.244,0.516,0.158,0.637-0.223
	c0.085-0.271,0.139-0.565,0.165-0.853c0.095-1.072,0.1-2.142-0.055-3.207c-0.088-0.59-0.403-0.913-0.9-1.028
	c-0.291-0.068-0.325-0.198-0.129-0.459c0.262-0.354,0.612-0.516,0.999-0.575C13.9,9.675,14.935,9.66,15.96,9.816
	c0.948,0.142,1.07,0.553,1.099,1.58c0.019,0.679-0.034,1.359-0.041,2.039c-0.008,0.66-0.013,1.32,0.014,1.979
	c0.007,0.218,0.082,0.45,0.177,0.644c0.126,0.254,0.308,0.293,0.502,0.107c0.242-0.234,0.475-0.491,0.666-0.777
	c0.873-1.313,1.55-2.753,2.073-4.291c0.216-0.635,0.369-0.75,0.965-0.752c1.043,0,2.085-0.011,3.128-0.008
	c0.189,0,0.385,0.017,0.565,0.078c0.3,0.103,0.453,0.394,0.344,0.729c-0.176,0.544-0.349,1.112-0.628,1.588
	c-0.691,1.189-1.443,2.331-2.168,3.494c-0.142,0.23-0.276,0.469-0.399,0.716C22.075,17.3,22.112,17.647,22.342,17.959"/>
</svg>
