<?xml version="1.0" encoding="utf-8"?>
<!-- Generator: Adobe Illustrator 17.0.1, SVG Export Plug-In . SVG Version: 6.00 Build 0)  -->
<!DOCTYPE svg PUBLIC "-//W3C//DTD SVG 1.1//EN" "http://www.w3.org/Graphics/SVG/1.1/DTD/svg11.dtd">
<svg version="1.1" id="Слой_1" xmlns="http://www.w3.org/2000/svg" xmlns:xlink="http://www.w3.org/1999/xlink" x="0px" y="0px"
	 width="31.424px" height="31.424px" viewBox="0 0 31.424 31.424" enable-background="new 0 0 31.424 31.424" xml:space="preserve">
<polygon fill-rule="evenodd" clip-rule="evenodd" fill="#B2B2B2" points="13.721,17.863 19.239,15.003 13.721,12.125 "/>
<path fill-rule="evenodd" clip-rule="evenodd" fill="#B2B2B2" d="M15.712,0C7.034,0,0,7.035,0,15.713
	c0,8.676,7.034,15.711,15.712,15.711s15.712-7.035,15.712-15.711C31.424,7.035,24.39,0,15.712,0 M26.038,15.985
	c0,1.653-0.203,3.306-0.203,3.306s-0.2,1.405-0.812,2.026c-0.776,0.812-1.646,0.816-2.047,0.863
	c-2.856,0.208-7.147,0.215-7.147,0.215s-5.309-0.049-6.941-0.205c-0.456-0.086-1.476-0.061-2.252-0.873
	c-0.614-0.621-0.812-2.026-0.812-2.026s-0.203-1.653-0.203-3.306v-1.55c0-1.652,0.203-3.304,0.203-3.304s0.198-1.407,0.812-2.028
	c0.776-0.811,1.646-0.816,2.045-0.862c2.858-0.208,7.143-0.208,7.143-0.208h0.01c0,0,4.286,0,7.142,0.208
	c0.401,0.046,1.271,0.051,2.047,0.862c0.612,0.621,0.812,2.028,0.812,2.028s0.203,1.652,0.203,3.304V15.985z"/>
</svg>
