<svg id="Layer_1" xmlns="http://www.w3.org/2000/svg" viewBox="0 0 98.5 98.3"><style>.st0,.st1{fill:none;stroke:#0b72ba;stroke-width:2;stroke-miterlimit:10}.st1{stroke-width:1.5;stroke-linecap:round;stroke-linejoin:round}</style><circle class="st0" cx="49.2" cy="49.2" r="47.5"/><path class="st1" d="M29.4 69.4c-2 8.5-1.1 14.7-1.1 14.7.2-5.2.9-10 2.1-14.3-.1 0-.2.1-.2.1s-.3-.1-.8-.5zm54-40.8c-10.1-3.1-17.6-.2-17.6-.2.6-1.8 6.2-2.8 6.2-2.8-12.6-.8-18.8 5.9-18.8 5.9.5-2.2 7.1-5.2 7.1-5.2-19 6.1-19.6 12.3-19.6 12.3-.6-3.2 7.5-9.1 7.5-9.1-16.1 7.9-16.3 16.6-16.3 16.6-.8-4 4.1-11.8 4.1-11.8-10.3 10.6-5.5 20.5-5.5 20.5-3.2-2.5-1.8-12.1-1.8-12.1-5.2 10.8.7 19.9.7 19.9-3.6-.6-5.4-6-5.4-6 .6 8.4 3.8 11.6 5.3 12.7 2.9-12.5 12-29.6 39-38.4.6-.2 1-.3 1-.3-.3.1-.7.2-1 .3-5.3 1.8-30.5 11.8-38 38.8 1.2-.4 8.3-3 10.6-8.3 0 0-.8 1.1-1.7 1.4 0 0 2.4-5.7 10.1-8.3 0 0-2.4.2-4.6.9 0 0 3.7-6.4 11-8 0 0-3.9-.1-4.7.7 0 0 2.8-4.2 9.2-5.4 0 0-4.4-.3-6.4 1.2 0 0 4.7-4.8 11.4-5.2 0 0-2.8-.4-4.3-.1 0 0 6.1-3.7 11.7-3.9 0 0-3.5-.3-4.5 0 0 0 6.7-1.7 15.3-6.1z"/></svg>