<svg id="Layer_1" xmlns="http://www.w3.org/2000/svg" viewBox="0 0 98.5 98.3"><style>.st0{fill:none;stroke:#0b72ba;stroke-width:2;stroke-miterlimit:10}.st1{fill-rule:evenodd;clip-rule:evenodd;fill:#0b72ba}</style><circle class="st0" cx="49.2" cy="49.2" r="47.5"/><path class="st1" d="M48.7 75.7c15.2 0 27.6-12.4 27.6-27.6 0-15.2-12.4-27.6-27.6-27.6-13.4.1-24.7 9.5-27.1 22.6l-.2.8h-4.5l5.8 7.7 5.8-7.7h-3.9l.3-1.2c2.5-11.2 12.3-18.9 23.7-18.9C62.1 23.8 73 34.7 73 48.1S62.1 72.5 48.6 72.5c-8 0-15.4-3.9-19.9-10.4h-3.8c5 8.4 13.9 13.6 23.8 13.6z"/><path class="st1" d="M46.4 31v19l13.5 8 1.3-2.2L49 48.5V31h-2.6zm0 0"/></svg>