<svg id="Layer_1" xmlns="http://www.w3.org/2000/svg" viewBox="0 0 98.5 98.3"><style>.st0{fill:none;stroke:#0b72ba;stroke-width:2;stroke-miterlimit:10}.st1{fill:#75c5e7}.st2{fill:#0b72ba}</style><circle class="st0" cx="49.2" cy="49.2" r="47.5"/><path class="st1" d="M37.9 73.1c0-.1-3.2-10.1-4.6-21-2-14.8.1-24.1 6.1-27.5l.8 1.4c-6.7 3.8-6.6 16.2-5.3 25.9 1.4 10.7 4.5 20.6 4.6 20.7l-1.6.5zm21.2-3.2l-1.5-.6c4-9.1 8.3-22.4 6.3-34.2-.6-3.6-1.7-6.2-2.5-7.7-.9-1.6-1.6-2.4-1.6-2.4l1.2-1.1c.1.1 3.2 3.4 4.5 10.8.8 4.3.8 9.1 0 14.3-1 6.3-3.1 13.4-6.4 20.9zM49.7 53l-1.6-.1c.9-18.3-.8-22.6-.8-22.7l1.5-.6c.1.2 1.8 4.5.9 23.4z"/><path class="st1" d="M49.2 40.2c-20.4 0-27.5-3.1-27.8-3.3l.7-1.5s1.8.8 6 1.6c3.9.7 10.7 1.6 21.1 1.6 20.1 0 26.9-3.1 27-3.1l.7 1.4c-.3.2-7.3 3.3-27.7 3.3zM47 51.3c-4.1 0-7.7-.2-10.7-.4-9.3-.7-14.5-2.1-14.7-2.2l.4-1.5c.1 0 5.3 1.4 14.5 2.1 8.5.6 22.1.8 39.1-2.1l.3 1.6c-11.3 1.9-21.1 2.5-28.9 2.5zm-9.1 10.8c-6.8 0-11.8-1.6-12-1.7l.5-1.5c.1 0 7.2 2.3 15.7 1.4l.2 1.6c-1.5.1-3 .2-4.4.2zm20.6 0c-1.7 0-2.7-.1-2.9-.1l.1-1.6c.1 0 8.5.6 16.2-1.6l.4 1.5c-5.1 1.6-10.5 1.8-13.8 1.8z"/><path class="st2" d="M73.5 27.9c-3-3.4-7.1-5.2-11.6-5.2-3.5 0-7.3 2.1-10.1 3.6-1 .6-2.4 1.3-2.8 1.4-.4 0-1.8-.8-2.8-1.4-2.8-1.5-6.5-3.6-10.1-3.6-4.5 0-8.6 1.8-11.6 5.2-2.9 3.2-4.4 7.4-4.4 11.8 0 6.3 2.3 15.4 6.1 24.1 1.7 3.9 3.5 7.3 5.2 9.7 2 2.9 3.8 4.4 5.4 4.4.7 0 2-.3 2.7-2.3.7-1.9 1.3-4.1 2-6.5 1.8-6.2 3.9-13.9 7.4-13.9h.2c1.6 0 3 1.3 4.3 4.1 1.3 2.7 2.3 6.4 3.2 9.9.6 2.3 1.2 4.5 1.9 6.4.7 2 2 2.3 2.6 2.3 1.6 0 3.3-1.5 5.4-4.4 1.7-2.5 3.5-5.9 5.2-9.8 3.8-8.8 6.1-17.8 6.1-23.9.1-4.5-1.5-8.7-4.3-11.9m-12.7 4.5s-3.7-.2-7-1.1c-1.5-.4-3.3-1.2-3.3-1.4 0-.2 1.9-1.3 2.4-1.6 2.5-1.4 6-3.3 8.9-3.3 8.6 0 13.7 7.5 13.7 14.7 0 5.8-2.3 14.6-5.9 23-1.6 3.7-3.4 7.1-5 9.4-1.9 2.7-3.1 3.5-3.4 3.4-.2 0-.3-.2-.4-.7-.6-1.8-1.2-4-1.9-6.2-1-3.6-2-7.3-3.4-10.3-1.7-3.7-3.8-5.4-6.4-5.4h-.2c-2.5 0-4.5 1.8-6.3 5.4-1.4 2.9-2.4 6.6-3.5 10.2-.6 2.3-1.3 4.5-1.9 6.3-.1.4-.2.7-.5.7-.2 0-1.1 0-3.4-3.4-1.6-2.3-3.4-5.6-5-9.3-3.6-8.4-5.9-17.2-5.9-23.2 0-7.2 5.1-14.7 13.7-14.7 2.2 0 5.2 1 7.8 2.7.4.2.9.7 1.5 1.1.2.2.4.3.6.5.6.5 1.5 1.1 2.5 1.7.4.3 1 .6 1.5.8 2.1.9 4.4 1.4 6.8 1.4 2.4 0 4-.4 4-.4s.4-.1.3-.2c0-.1-.3-.1-.3-.1zm0 0"/></svg>