<svg id="Layer_1" xmlns="http://www.w3.org/2000/svg" viewBox="0 0 98.5 98.3"><style>.st0{stroke-width:2}.st0,.st1{fill:none;stroke:#0b72ba;stroke-miterlimit:10}.st2{fill:#75c5e7}.st3{fill:#0b72ba}</style><circle class="st0" cx="49.2" cy="49.2" r="47.5"/><path class="st1" d="M60.2 46.6l-10.8-7.3-2.7 5.6 9.4 6.3z"/><path class="st2" d="M59 26.7c-10.2 1.2-9.2 11.9-9.2 11.9l10.8 7.3s4.5.9 10-6.4c8.4-11.2-4.1-23.8-4.1-23.8s.7 10.1-7.5 11zm9 14.2s-.1-2-1.5-2.2c-1.4-.3-3.6-.8-4.3-1.8-.8-1-1.8-3.6-3.8-3.6-2.1.1-5-2.5-5-2.5s1.7-2.8 6.3-2.9c6.4.2 7.7-8.7 7.7-8.7 9.7 10.9.6 21.7.6 21.7zm-21.6 4.6c-.3-.2-.8-.1-1 .2l-1.3 2c-.2.3-.1.8.2 1l9.3 6.2c.3.2.8.1 1-.2l1.3-2c.2-.3.1-.8-.2-1l-9.3-6.2z"/><path class="st3" d="M48.3 69.3c2.2-4.5 3.7-9.9 4.8-13.5l-9.6-6.4c-2.9 2.4-7.8 6.6-11.1 10.4-7.5 8.7-8.4 18-3.8 21.6 4.8 3.5 13.7.2 19.7-12.1zm-18.2 9.4c.2-.5.7-.7 1.2-.5.2.1 5.7 2.2 10.6-5.7.2-.3.5-.4.8-.4.2 0 .3 0 .5.1.4.3.6.8.3 1.3-2.9 4.8-6.2 6.3-8.5 6.7-2.5.5-4.3-.2-4.4-.3-.5-.2-.7-.8-.5-1.2z"/></svg>