<svg id="Layer_1" xmlns="http://www.w3.org/2000/svg" viewBox="0 0 98.5 98.3"><style>.st0{fill:none;stroke:#0b72ba;stroke-width:2;stroke-miterlimit:10}.st1{fill:#75c5e7}.st2{fill:#0b72ba}</style><circle class="st0" cx="49.2" cy="49.2" r="47.5"/><path class="st1" d="M29 66.1l.2-.5 5.1-12.2-2.3-.9.3-.7.3-.7.8-1.9-2-.8-4.8-2.1-2-.8-.8 1.9-.3.7-.3.7-2.3-.9-5.3 12.7L28 65.7z"/><circle class="st2" cx="59.3" cy="23.6" r="7"/><path transform="rotate(-67.356 15.452 53.053)" class="st1" d="M8.6 51.9h13.7v2.3H8.6z"/><path class="st1" d="M30.7 66.9l2.2.9 1-2.5 4.3-10.2-2.2-.9-4.7 11.3z"/><path class="st2" d="M69.3 47l13.2-11.3-3.4-3.9-9.9 8.5-7.4-5.7-12.4-4.9H33.9l-6.7 15.1 4.9 1.9 5.2-11.8h10.2l-7 19.4-1.7 10.6-3.1.2-1.4 3.3-.6 1.4-1.4-.6-7.7-3.2-1.3.1.6 6.9 20.8-1.6 2.1-12.6.6.4 8.2 6.1.8 16.3 7-.4-1-19.6-10.1-7.4 7.2-14.8z"/></svg>