<svg id="Layer_1" xmlns="http://www.w3.org/2000/svg" viewBox="0 0 98.5 98.3"><style>.st0{stroke-width:2}.st0,.st1,.st2{fill:none;stroke:#0b72ba;stroke-miterlimit:10}.st2{stroke-width:2;stroke-linecap:round;stroke-linejoin:round}</style><circle class="st0" cx="49.3" cy="49.2" r="47.5"/><circle class="st1" cx="22.3" cy="58.9" r="4.2"/><circle class="st1" cx="27.4" cy="45.5" r="4.2"/><circle class="st1" cx="72.3" cy="46.5" r="4.2"/><circle class="st1" cx="33.9" cy="35.2" r="3.6"/><circle class="st1" cx="43.9" cy="29.3" r="3.6"/><circle class="st1" cx="55.1" cy="29.3" r="3.6"/><circle class="st1" cx="65.6" cy="35.2" r="3.6"/><circle class="st1" cx="76.5" cy="58.9" r="4.2"/><path class="st2" d="M86.4 58.2c-1-3.9-7.9-37.5-36.2-38.5h-1.4c-28.3 1-35.2 34.5-36.2 38.5s1.1 10.1 8 11c8 1 10-4 11-8 2.5-21.8 14.5-24 17.9-24 3.7.1 15.4 2.2 17.9 24 1 4 3 9 11 8 7-.9 9-7 8-11z"/></svg>